<svg width="1228" height="636" xmlns="http://www.w3.org/2000/svg" xmlns:xlink="http://www.w3.org/1999/xlink" overflow="hidden"><defs><clipPath id="clip0"><rect x="35" y="57" width="1228" height="636"/></clipPath></defs><g clip-path="url(#clip0)" transform="translate(-35 -57)"><rect x="493.5" y="200.5" width="135" height="62" stroke="#000000" stroke-width="1.33333" stroke-miterlimit="8" fill="#FFFFFF"/><text font-family="Yu Gothic,Yu Gothic_MSFontService,sans-serif" font-weight="400" font-size="11" transform="translate(524.856 229)">&lt;&lt;abstract&gt;&gt;<tspan font-size="11" x="-18.58" y="13">IoTHubAuthentication</tspan></text><rect x="405.5" y="343.5" width="135" height="62" stroke="#000000" stroke-width="1.33333" stroke-miterlimit="8" fill="#FFFFFF"/><text font-family="Yu Gothic,Yu Gothic_MSFontService,sans-serif" font-weight="400" font-size="11" transform="translate(436.859 371)">&lt;&lt;abstract&gt;&gt;<tspan font-size="11" x="-4.83334" y="13">IoTHubAuthDPS</tspan></text><rect x="229.5" y="473.5" width="135" height="62" stroke="#000000" stroke-width="1.33333" stroke-miterlimit="8" fill="#FFFFFF"/><text font-family="Yu Gothic,Yu Gothic_MSFontService,sans-serif" font-weight="400" font-size="11" transform="translate(256.026 501)">IoTHubAuthDPS<tspan font-size="11" x="5" y="13">SymmetricKey</tspan></text><rect x="385.5" y="473.5" width="135" height="62" stroke="#000000" stroke-width="1.33333" stroke-miterlimit="8" fill="#FFFFFF"/><text font-family="Yu Gothic,Yu Gothic_MSFontService,sans-serif" font-weight="400" font-size="11" transform="translate(400.581 507)">IoTHubAuthDPSTpm</text><rect x="540.5" y="473.5" width="135" height="62" stroke="#000000" stroke-width="1.33333" stroke-miterlimit="8" fill="#FFFFFF"/><text font-family="Yu Gothic,Yu Gothic_MSFontService,sans-serif" font-weight="400" font-size="11" transform="translate(554.72 507)">IoTHubAuthDPSX509</text><rect x="665.5" y="343.5" width="135" height="62" stroke="#000000" stroke-width="1.33333" stroke-miterlimit="8" fill="#FFFFFF"/><text font-family="Yu Gothic,Yu Gothic_MSFontService,sans-serif" font-weight="400" font-size="11" transform="translate(678.752 378)">IoTHubSymmetricKey</text><rect x="974.5" y="343.5" width="135" height="62" stroke="#000000" stroke-width="1.33333" stroke-miterlimit="8" fill="#FFFFFF"/><text font-family="Yu Gothic,Yu Gothic_MSFontService,sans-serif" font-weight="400" font-size="11" transform="translate(1002.66 378)">IoTHubAuthEnv</text><rect x="819.5" y="343.5" width="135" height="62" stroke="#000000" stroke-width="1.33333" stroke-miterlimit="8" fill="#FFFFFF"/><text font-family="Yu Gothic,Yu Gothic_MSFontService,sans-serif" font-weight="400" font-size="11" transform="translate(844.747 378)">IoTHubAuthX509</text><path d="M551.5 282.5 561 265.5 570.5 282.5Z" stroke="#000000" stroke-width="1.33333" stroke-miterlimit="8" fill="#FFFFFF" fill-rule="evenodd"/><path d="M561.5 282.5 561.5 312.718 473.5 312.718 473.5 342.935" stroke="#000000" stroke-width="0.666667" stroke-miterlimit="8" fill="none" fill-rule="evenodd"/><path d="M0 0 30.2177 0 30.2177 171.809 60.4353 171.809" stroke="#000000" stroke-width="0.666667" stroke-miterlimit="8" fill="none" fill-rule="evenodd" transform="matrix(1.83697e-16 1 1 -1.83697e-16 561.5 282.5)"/><path d="M0 0 30.2178 0 30.2178 480.798 60.4352 480.798" stroke="#000000" stroke-width="0.666667" stroke-miterlimit="8" fill="none" fill-rule="evenodd" transform="matrix(1.83697e-16 1 1 -1.83697e-16 561.5 282.5)"/><path d="M0 0 30.3377 0 30.3377 326.304 60.6751 326.304" stroke="#000000" stroke-width="0.666667" stroke-miterlimit="8" fill="none" fill-rule="evenodd" transform="matrix(1.83697e-16 1 1 -1.83697e-16 561.5 282.5)"/><path d="M463.5 426.5 473 409.5 482.5 426.5Z" stroke="#000000" stroke-width="1.33333" stroke-miterlimit="8" fill="#FFFFFF" fill-rule="evenodd"/><path d="M473.5 426.5 473.5 450.06 297.5 450.06 297.5 473.62" stroke="#000000" stroke-width="0.666667" stroke-miterlimit="8" fill="none" fill-rule="evenodd"/><path d="M472.945 426.5 472.945 450.06 452.5 450.06 452.5 473.62" stroke="#000000" stroke-width="0.666667" stroke-miterlimit="8" fill="none" fill-rule="evenodd"/><path d="M0 0 23.5601 0 23.5601 135.111 47.1202 135.111" stroke="#000000" stroke-width="0.666667" stroke-miterlimit="8" fill="none" fill-rule="evenodd" transform="matrix(1.83697e-16 1 1 -1.83697e-16 473.5 426.5)"/><rect x="404.5" y="617.5" width="96" height="62" stroke="#000000" stroke-width="1.33333" stroke-miterlimit="8" fill="#FFFFFF"/><text font-family="Yu Gothic,Yu Gothic_MSFontService,sans-serif" font-weight="400" font-size="11" transform="translate(425.751 646)">&lt;&lt;SDK&gt;&gt;<tspan font-size="11" x="-4.92001" y="13">DeviceClient</tspan></text><rect x="993.5" y="586.5" width="95.9999" height="62" stroke="#000000" stroke-width="1.33333" stroke-miterlimit="8" fill="#FFFFFF"/><text font-family="Yu Gothic,Yu Gothic_MSFontService,sans-serif" font-weight="400" font-size="11" transform="translate(1014.99 614)">&lt;&lt;SDK&gt;&gt;<tspan font-size="11" x="-6.66663" y="13">Module</tspan>Client</text><path d="M405.659 374.834 402.992 374.834 402.992 374.167 405.659 374.167ZM400.992 374.834 398.325 374.834 398.325 374.167 400.992 374.167ZM396.325 374.834 393.659 374.834 393.659 374.167 396.325 374.167ZM391.659 374.834 388.992 374.834 388.992 374.167 391.659 374.167ZM386.992 374.834 384.325 374.834 384.325 374.167 386.992 374.167ZM382.325 374.834 379.659 374.834 379.659 374.167 382.325 374.167ZM377.659 374.834 374.992 374.834 374.992 374.167 377.659 374.167ZM372.992 374.834 370.325 374.834 370.325 374.167 372.992 374.167ZM368.325 374.834 365.659 374.834 365.659 374.167 368.325 374.167ZM363.659 374.834 360.992 374.834 360.992 374.167 363.659 374.167ZM358.992 374.834 356.325 374.834 356.325 374.167 358.992 374.167ZM354.325 374.834 351.659 374.834 351.659 374.167 354.325 374.167ZM349.659 374.834 346.992 374.834 346.992 374.167 349.659 374.167ZM344.992 374.834 342.325 374.834 342.325 374.167 344.992 374.167ZM340.325 374.834 337.659 374.834 337.659 374.167 340.325 374.167ZM335.659 374.834 332.992 374.834 332.992 374.167 335.659 374.167ZM330.992 374.834 328.325 374.834 328.325 374.167 330.992 374.167ZM326.325 374.834 323.659 374.834 323.659 374.167 326.325 374.167ZM321.659 374.834 318.992 374.834 318.992 374.167 321.659 374.167ZM316.992 374.834 314.325 374.834 314.325 374.167 316.992 374.167ZM312.325 374.834 309.659 374.834 309.659 374.167 312.325 374.167ZM307.659 374.834 304.992 374.834 304.992 374.167 307.659 374.167ZM302.992 374.834 300.325 374.834 300.325 374.167 302.992 374.167ZM298.325 374.834 295.659 374.834 295.659 374.167 298.325 374.167ZM293.659 374.834 290.992 374.834 290.992 374.167 293.659 374.167ZM288.992 374.834 286.325 374.834 286.325 374.167 288.992 374.167ZM284.325 374.834 281.659 374.834 281.659 374.167 284.325 374.167ZM279.659 374.834 276.992 374.834 276.992 374.167 279.659 374.167ZM274.992 374.834 272.325 374.834 272.325 374.167 274.992 374.167ZM270.325 374.834 267.659 374.834 267.659 374.167 270.325 374.167ZM265.659 374.834 262.992 374.834 262.992 374.167 265.659 374.167ZM260.992 374.834 258.325 374.834 258.325 374.167 260.992 374.167ZM256.325 374.834 253.659 374.834 253.659 374.167 256.325 374.167ZM251.659 374.834 248.992 374.833 248.992 374.167 251.659 374.167ZM246.992 374.833 244.325 374.833 244.325 374.167 246.992 374.167ZM242.325 374.833 239.659 374.833 239.659 374.167 242.325 374.167ZM237.659 374.833 234.992 374.833 234.992 374.167 237.659 374.167ZM232.992 374.833 230.325 374.833 230.325 374.167 232.992 374.167ZM228.325 374.833 225.659 374.833 225.659 374.167 228.325 374.167ZM223.659 374.833 220.992 374.833 220.992 374.167 223.659 374.167ZM218.992 374.833 216.325 374.833 216.325 374.167 218.992 374.167ZM214.325 374.833 211.659 374.833 211.659 374.167 214.325 374.167ZM209.659 374.833 206.992 374.833 206.992 374.167 209.659 374.167ZM204.992 374.833 202.325 374.833 202.325 374.167 204.992 374.167ZM200.325 374.833 197.659 374.833 197.659 374.167 200.325 374.167ZM195.659 374.833 192.992 374.833 192.992 374.167 195.659 374.167ZM190.992 374.833 188.325 374.833 188.325 374.167 190.992 374.167ZM186.325 374.833 183.659 374.833 183.659 374.167 186.325 374.167ZM181.659 374.833 178.992 374.833 178.992 374.167 181.659 374.167ZM176.992 374.833 174.325 374.833 174.325 374.167 176.992 374.167ZM172.325 374.833 169.659 374.833 169.659 374.167 172.325 374.167ZM167.659 374.833 164.992 374.833 164.992 374.167 167.659 374.167ZM162.992 374.833 160.325 374.833 160.325 374.167 162.992 374.167ZM158.325 374.833 155.659 374.833 155.659 374.167 158.325 374.167ZM153.659 374.833 150.992 374.833 150.992 374.167 153.659 374.167ZM148.992 374.833 146.325 374.833 146.325 374.167 148.992 374.167ZM144.325 374.833 144.158 374.833 144.158 374.167 144.325 374.167ZM151.992 379.455 143.499 374.5 151.992 369.545C152.151 369.453 152.355 369.506 152.448 369.665 152.541 369.824 152.487 370.029 152.328 370.121L144.328 374.788 144.328 374.212 152.328 378.879C152.487 378.972 152.541 379.176 152.448 379.335 152.355 379.494 152.151 379.547 151.992 379.455Z"/><path d="M1041.83 405.5 1041.83 408.167 1041.17 408.167 1041.17 405.5ZM1041.83 410.167 1041.83 412.833 1041.17 412.833 1041.17 410.167ZM1041.83 414.833 1041.83 417.5 1041.17 417.5 1041.17 414.833ZM1041.83 419.5 1041.83 422.167 1041.17 422.167 1041.17 419.5ZM1041.83 424.167 1041.83 426.833 1041.17 426.833 1041.17 424.167ZM1041.83 428.833 1041.83 431.5 1041.17 431.5 1041.17 428.833ZM1041.83 433.5 1041.83 436.167 1041.17 436.167 1041.17 433.5ZM1041.83 438.167 1041.83 440.833 1041.17 440.833 1041.17 438.167ZM1041.83 442.833 1041.83 445.5 1041.17 445.5 1041.17 442.833ZM1041.83 447.5 1041.83 450.167 1041.17 450.167 1041.17 447.5ZM1041.83 452.167 1041.83 454.833 1041.17 454.833 1041.17 452.167ZM1041.83 456.833 1041.83 459.5 1041.17 459.5 1041.17 456.833ZM1041.83 461.5 1041.83 464.167 1041.17 464.167 1041.17 461.5ZM1041.83 466.167 1041.83 468.833 1041.17 468.833 1041.17 466.167ZM1041.83 470.833 1041.83 473.5 1041.17 473.5 1041.17 470.833ZM1041.83 475.5 1041.83 478.167 1041.17 478.167 1041.17 475.5ZM1041.83 480.167 1041.83 482.833 1041.17 482.833 1041.17 480.167ZM1041.83 484.833 1041.83 487.5 1041.17 487.5 1041.17 484.833ZM1041.83 489.5 1041.83 492.167 1041.17 492.167 1041.17 489.5ZM1041.83 494.167 1041.83 496.833 1041.17 496.833 1041.17 494.167ZM1041.83 498.833 1041.83 501.5 1041.17 501.5 1041.17 498.833ZM1041.83 503.5 1041.83 506.167 1041.17 506.167 1041.17 503.5ZM1041.83 508.167 1041.83 510.833 1041.17 510.833 1041.17 508.167ZM1041.83 512.833 1041.83 515.5 1041.17 515.5 1041.17 512.833ZM1041.83 517.5 1041.83 520.167 1041.17 520.167 1041.17 517.5ZM1041.83 522.167 1041.83 524.833 1041.17 524.833 1041.17 522.167ZM1041.83 526.833 1041.83 529.5 1041.17 529.5 1041.17 526.833ZM1041.83 531.5 1041.83 534.167 1041.17 534.167 1041.17 531.5ZM1041.83 536.167 1041.83 538.833 1041.17 538.833 1041.17 536.167ZM1041.83 540.833 1041.83 543.5 1041.17 543.5 1041.17 540.833ZM1041.83 545.5 1041.83 548.167 1041.17 548.167 1041.17 545.5ZM1041.83 550.167 1041.83 552.833 1041.17 552.833 1041.17 550.167ZM1041.83 554.833 1041.83 557.5 1041.17 557.5 1041.17 554.833ZM1041.83 559.5 1041.83 562.167 1041.17 562.167 1041.17 559.5ZM1041.83 564.167 1041.83 566.833 1041.17 566.833 1041.17 564.167ZM1041.83 568.833 1041.83 571.5 1041.17 571.5 1041.17 568.833ZM1041.83 573.5 1041.83 576.167 1041.17 576.167 1041.17 573.5ZM1041.83 578.167 1041.83 580.833 1041.17 580.833 1041.17 578.167ZM1041.83 582.833 1041.83 585.5 1041.17 585.5 1041.17 582.833ZM1046.45 578.051 1041.5 586.544 1036.55 578.051C1036.45 577.892 1036.51 577.688 1036.67 577.595 1036.82 577.502 1037.03 577.556 1037.12 577.715L1041.79 585.715 1041.21 585.715 1045.88 577.715C1045.97 577.556 1046.18 577.502 1046.33 577.595 1046.49 577.688 1046.55 577.892 1046.45 578.051Z"/><rect x="47.5001" y="343.5" width="96" height="62" stroke="#000000" stroke-width="1.33333" stroke-miterlimit="8" fill="#FFFFFF"/><text font-family="Yu Gothic,Yu Gothic_MSFontService,sans-serif" font-weight="400" font-size="11" transform="translate(68.4817 365)">&lt;&lt;SDK&gt;&gt;<tspan font-size="11" x="-3.75333" y="13">Provisioning </tspan><tspan font-size="11" x="11.8333" y="25">Client</tspan></text><path d="M297.656 535.205 300.013 536.453 299.701 537.042 297.344 535.795ZM301.781 537.388 304.137 538.636 303.826 539.225 301.469 537.978ZM305.905 539.571 308.262 540.819 307.95 541.408 305.593 540.161ZM310.03 541.755 312.387 543.002 312.075 543.591 309.718 542.344ZM314.154 543.938 316.511 545.185 316.199 545.774 313.842 544.527ZM318.279 546.12 320.636 547.368 320.324 547.957 317.967 546.71ZM322.404 548.304 324.76 549.551 324.449 550.14 322.092 548.893ZM326.528 550.487 328.885 551.734 328.573 552.323 326.216 551.076ZM330.653 552.67 333.01 553.917 332.698 554.506 330.341 553.259ZM334.777 554.853 337.134 556.1 336.822 556.689 334.465 555.442ZM338.902 557.036 341.259 558.283 340.947 558.872 338.59 557.625ZM343.026 559.219 345.383 560.466 345.072 561.055 342.715 559.808ZM347.151 561.402 349.508 562.649 349.196 563.238 346.839 561.991ZM351.276 563.585 353.633 564.832 353.321 565.421 350.964 564.174ZM355.4 565.768 357.757 567.015 357.445 567.604 355.088 566.357ZM359.525 567.951 361.882 569.198 361.57 569.787 359.213 568.54ZM363.649 570.134 366.006 571.381 365.694 571.97 363.338 570.723ZM367.774 572.317 370.131 573.564 369.819 574.153 367.462 572.906ZM371.899 574.5 374.255 575.747 373.944 576.336 371.587 575.089ZM376.023 576.683 378.38 577.93 378.068 578.519 375.711 577.272ZM380.148 578.866 382.505 580.113 382.193 580.702 379.836 579.455ZM384.272 581.049 386.629 582.296 386.317 582.885 383.961 581.638ZM388.397 583.232 390.754 584.479 390.442 585.068 388.085 583.821ZM392.522 585.415 394.878 586.662 394.567 587.251 392.21 586.004ZM396.646 587.598 399.003 588.845 398.691 589.434 396.334 588.187ZM400.771 589.781 403.128 591.028 402.816 591.617 400.459 590.37ZM404.895 591.964 407.252 593.211 406.94 593.8 404.583 592.553ZM409.02 594.147 411.377 595.394 411.065 595.983 408.708 594.736ZM413.144 596.33 415.501 597.577 415.19 598.166 412.833 596.919ZM417.269 598.513 419.626 599.76 419.314 600.349 416.957 599.102ZM421.394 600.696 423.751 601.943 423.439 602.532 421.082 601.285ZM425.518 602.879 427.875 604.126 427.563 604.716 425.206 603.468ZM429.643 605.062 432 606.309 431.688 606.898 429.331 605.651ZM433.767 607.245 436.124 608.492 435.812 609.082 433.456 607.834ZM437.892 609.428 440.249 610.675 439.937 611.265 437.58 610.017ZM442.017 611.611 444.373 612.858 444.062 613.448 441.705 612.2ZM446.141 613.794 448.498 615.041 448.186 615.631 445.829 614.383ZM450.266 615.977 452.623 617.224 452.311 617.814 449.954 616.566ZM447.868 609.479 453.057 617.831 443.232 618.237C443.048 618.245 442.893 618.102 442.886 617.918 442.878 617.734 443.021 617.579 443.205 617.571L452.459 617.189 452.189 617.698 447.301 609.831C447.204 609.675 447.252 609.469 447.409 609.372 447.565 609.275 447.771 609.323 447.868 609.479Z"/><path d="M452.833 535.5 452.833 538.167 452.167 538.167 452.167 535.5ZM452.833 540.167 452.833 542.833 452.167 542.833 452.167 540.167ZM452.833 544.833 452.833 547.5 452.167 547.5 452.167 544.833ZM452.833 549.5 452.833 552.167 452.167 552.167 452.167 549.5ZM452.833 554.167 452.833 556.833 452.167 556.833 452.167 554.167ZM452.833 558.833 452.833 561.5 452.167 561.5 452.167 558.833ZM452.833 563.5 452.833 566.167 452.167 566.167 452.167 563.5ZM452.833 568.167 452.833 570.833 452.167 570.833 452.167 568.167ZM452.833 572.833 452.833 575.5 452.167 575.5 452.167 572.833ZM452.833 577.5 452.833 580.167 452.167 580.167 452.167 577.5ZM452.833 582.167 452.833 584.833 452.167 584.833 452.167 582.167ZM452.833 586.833 452.833 589.5 452.167 589.5 452.167 586.833ZM452.833 591.5 452.833 594.167 452.167 594.167 452.167 591.5ZM452.833 596.167 452.833 598.833 452.167 598.833 452.167 596.167ZM452.833 600.833 452.833 603.5 452.167 603.5 452.167 600.833ZM452.833 605.5 452.833 608.167 452.167 608.167 452.167 605.5ZM452.833 610.167 452.833 612.833 452.167 612.833 452.167 610.167ZM452.833 614.833 452.833 617.171 452.167 617.171 452.167 614.833ZM457.455 609.339 452.5 617.832 447.546 609.339C447.453 609.18 447.507 608.976 447.666 608.883 447.825 608.79 448.029 608.844 448.121 609.003L452.788 617.003 452.212 617.003 456.879 609.003C456.972 608.844 457.176 608.79 457.335 608.883 457.494 608.975 457.548 609.18 457.455 609.339Z"/><path d="M0.15593-0.294613 2.51284 0.952823 2.20098 1.54205-0.15593 0.294613ZM4.28052 1.8884 6.63743 3.13584 6.32557 3.72506 3.96866 2.47763ZM8.40511 4.07141 10.762 5.31885 10.4502 5.90808 8.09325 4.66064ZM12.5297 6.25443 14.8866 7.50186 14.5747 8.09109 12.2178 6.84365ZM16.6543 8.43744 19.0112 9.68487 18.6993 10.2741 16.3424 9.02667ZM20.7789 10.6205 23.1358 11.8679 22.8239 12.4571 20.467 11.2097ZM24.9035 12.8035 27.2604 14.0509 26.9485 14.6401 24.5916 13.3927ZM29.028 14.9865 31.385 16.2339 31.0731 16.8231 28.7162 15.5757ZM33.1526 17.1695 35.5095 18.4169 35.1977 19.0062 32.8408 17.7587ZM37.2772 19.3525 39.6341 20.5999 39.3223 21.1892 36.9654 19.9417ZM41.4018 21.5355 43.7587 22.783 43.4469 23.3722 41.09 22.1247ZM45.5264 23.7185 47.8833 24.966 47.5715 25.5552 45.2145 24.3078ZM49.651 25.9015 52.0079 27.149 51.696 27.7382 49.3391 26.4908ZM53.7756 28.0846 56.1325 29.332 55.8206 29.9212 53.4637 28.6738ZM57.9002 30.2676 60.2571 31.515 59.9452 32.1042 57.5883 30.8568ZM62.0248 32.4506 64.3817 33.698 64.0698 34.2872 61.7129 33.0398ZM66.1494 34.6336 68.5063 35.881 68.1944 36.4703 65.8375 35.2228ZM70.274 36.8166 72.6309 38.064 72.319 38.6533 69.9621 37.4058ZM74.3985 38.9996 76.7554 40.2471 76.4436 40.8363 74.0867 39.5889ZM78.5231 41.1826 80.88 42.4301 80.5682 43.0193 78.2113 41.7719ZM82.6477 43.3656 85.0046 44.6131 84.6928 45.2023 82.3359 43.9549ZM86.7723 45.5487 89.1292 46.7961 88.8174 47.3853 86.4604 46.1379ZM90.8969 47.7317 93.2538 48.9791 92.9419 49.5683 90.585 48.3209ZM95.0215 49.9147 97.3784 51.1621 97.0665 51.7514 94.7096 50.5039ZM99.1461 52.0977 101.503 53.3451 101.191 53.9344 98.8342 52.6869ZM103.271 54.2807 105.628 55.5281 105.316 56.1174 102.959 54.8699ZM107.395 56.4637 109.752 57.7112 109.44 58.3004 107.083 57.053ZM111.52 58.6467 113.877 59.8942 113.565 60.4834 111.208 59.236ZM115.644 60.8298 118.001 62.0772 117.689 62.6664 115.333 61.419ZM119.769 63.0128 122.126 64.2602 121.814 64.8494 119.457 63.602ZM123.894 65.1958 126.25 66.4432 125.939 67.0324 123.582 65.785ZM128.018 67.3788 130.375 68.6262 130.063 69.2154 127.706 67.968ZM132.143 69.5618 134.5 70.8092 134.188 71.3985 131.831 70.151ZM136.267 71.7448 138.624 72.9922 138.312 73.5815 135.955 72.334ZM140.392 73.9278 142.749 75.1753 142.437 75.7645 140.08 74.517ZM144.517 76.1108 146.873 77.3583 146.562 77.9475 144.205 76.7001ZM148.641 78.2938 150.998 79.5413 150.686 80.1305 148.329 78.8831ZM152.766 80.4769 155.123 81.7243 154.811 82.3135 152.454 81.0661ZM150.368 73.9791 155.557 82.3313 145.732 82.7373C145.548 82.7449 145.393 82.6019 145.385 82.418 145.378 82.234 145.521 82.0788 145.705 82.0712L154.958 81.6888 154.689 82.1978 149.801 74.3309C149.704 74.1745 149.752 73.969 149.909 73.8719 150.065 73.7747 150.27 73.8227 150.368 73.9791Z" transform="matrix(-1 0 0 1 608.056 535.5)"/><path d="M733.088 405.5 733.088 408.167 732.421 408.167 732.421 405.5ZM733.088 410.167 733.088 412.833 732.421 412.833 732.421 410.167ZM733.088 414.833 733.088 417.5 732.421 417.5 732.421 414.833ZM733.088 419.5 733.088 422.167 732.421 422.167 732.421 419.5ZM733.088 424.167 733.088 426.833 732.421 426.833 732.421 424.167ZM733.088 428.833 733.088 431.5 732.421 431.5 732.421 428.833ZM733.088 433.5 733.088 436.167 732.421 436.167 732.421 433.5ZM733.088 438.167 733.088 440.833 732.421 440.833 732.421 438.167ZM733.088 442.833 733.088 445.5 732.421 445.5 732.421 442.833ZM733.088 447.5 733.088 450.167 732.421 450.167 732.421 447.5ZM733.088 452.167 733.088 454.833 732.421 454.833 732.421 452.167ZM733.088 456.833 733.088 459.5 732.421 459.5 732.421 456.833ZM733.088 461.5 733.088 464.167 732.421 464.167 732.421 461.5ZM733.088 466.167 733.088 468.833 732.421 468.833 732.421 466.167ZM733.088 470.833 733.088 473.5 732.421 473.5 732.421 470.833ZM733.088 475.5 733.088 478.167 732.421 478.167 732.421 475.5ZM733.088 480.167 733.088 482.833 732.421 482.833 732.421 480.167ZM733.088 484.833 733.088 487.5 732.421 487.5 732.421 484.833ZM733.088 489.5 733.088 492.167 732.421 492.167 732.421 489.5ZM733.088 494.167 733.088 496.833 732.421 496.833 732.421 494.167ZM733.088 498.833 733.088 501.5 732.421 501.5 732.421 498.833ZM733.088 503.5 733.088 506.167 732.421 506.167 732.421 503.5ZM733.088 508.167 733.088 510.833 732.421 510.833 732.421 508.167ZM733.088 512.833 733.088 515.5 732.421 515.5 732.421 512.833ZM733.088 517.5 733.088 520.167 732.421 520.167 732.421 517.5ZM733.088 522.167 733.088 524.833 732.421 524.833 732.421 522.167ZM733.088 526.833 733.088 529.5 732.421 529.5 732.421 526.833ZM733.088 531.5 733.088 534.167 732.421 534.167 732.421 531.5ZM733.088 536.167 733.088 538.833 732.421 538.833 732.421 536.167ZM733.088 540.833 733.088 543.5 732.421 543.5 732.421 540.833ZM733.088 545.5 733.088 548.167 732.421 548.167 732.421 545.5ZM733.088 550.167 733.088 552.833 732.421 552.833 732.421 550.167ZM733.088 554.833 733.088 557.5 732.421 557.5 732.421 554.833ZM733.088 559.5 733.088 562.167 732.421 562.167 732.421 559.5ZM733.088 564.167 733.088 566.833 732.421 566.833 732.421 564.167ZM733.088 568.833 733.088 571.5 732.421 571.5 732.421 568.833ZM733.088 573.5 733.088 576.167 732.421 576.167 732.421 573.5ZM730.818 576.564 728.152 576.564 728.152 575.897 730.818 575.897ZM726.152 576.564 723.485 576.564 723.485 575.897 726.152 575.897ZM721.485 576.564 718.818 576.564 718.818 575.897 721.485 575.897ZM716.818 576.564 714.152 576.564 714.152 575.897 716.818 575.897ZM712.152 576.564 709.485 576.564 709.485 575.897 712.152 575.897ZM707.485 576.564 704.818 576.564 704.818 575.897 707.485 575.897ZM702.818 576.564 700.152 576.564 700.152 575.897 702.818 575.897ZM698.152 576.564 695.485 576.564 695.485 575.897 698.152 575.897ZM693.485 576.564 690.818 576.564 690.818 575.897 693.485 575.897ZM688.818 576.564 686.152 576.564 686.152 575.897 688.818 575.897ZM684.152 576.564 681.485 576.564 681.485 575.897 684.152 575.897ZM679.485 576.564 676.818 576.564 676.818 575.897 679.485 575.897ZM674.818 576.564 672.152 576.564 672.152 575.897 674.818 575.897ZM670.152 576.564 667.485 576.564 667.485 575.897 670.152 575.897ZM665.485 576.564 662.818 576.564 662.818 575.897 665.485 575.897ZM660.818 576.564 658.152 576.564 658.152 575.897 660.818 575.897ZM656.152 576.564 653.485 576.564 653.485 575.897 656.152 575.897ZM651.485 576.564 648.818 576.564 648.818 575.897 651.485 575.897ZM646.818 576.564 644.152 576.564 644.152 575.897 646.818 575.897ZM642.152 576.564 639.485 576.564 639.485 575.897 642.152 575.897ZM637.485 576.564 634.818 576.564 634.818 575.897 637.485 575.897ZM632.818 576.564 630.152 576.564 630.152 575.897 632.818 575.897ZM628.152 576.564 625.485 576.564 625.485 575.897 628.152 575.897ZM623.485 576.564 620.818 576.564 620.818 575.897 623.485 575.897ZM618.818 576.564 616.152 576.564 616.152 575.897 618.818 575.897ZM614.152 576.564 611.485 576.564 611.485 575.897 614.152 575.897ZM609.485 576.564 606.818 576.564 606.818 575.897 609.485 575.897ZM604.818 576.564 602.152 576.564 602.152 575.897 604.818 575.897ZM600.152 576.564 597.485 576.564 597.485 575.897 600.152 575.897ZM595.485 576.564 592.818 576.564 592.818 575.897 595.485 575.897ZM590.818 576.564 588.152 576.564 588.152 575.897 590.818 575.897ZM586.152 576.564 583.485 576.564 583.485 575.897 586.152 575.897ZM581.485 576.564 578.818 576.564 578.818 575.897 581.485 575.897ZM576.818 576.564 574.152 576.564 574.152 575.897 576.818 575.897ZM572.152 576.564 569.485 576.564 569.485 575.897 572.152 575.897ZM567.485 576.564 564.818 576.564 564.818 575.897 567.485 575.897ZM562.818 576.564 560.152 576.564 560.152 575.897 562.818 575.897ZM558.152 576.564 555.485 576.564 555.485 575.897 558.152 575.897ZM553.485 576.564 550.818 576.564 550.818 575.897 553.485 575.897ZM548.818 576.564 546.152 576.564 546.152 575.897 548.818 575.897ZM544.152 576.564 541.485 576.564 541.485 575.897 544.152 575.897ZM539.485 576.564 536.818 576.564 536.818 575.897 539.485 575.897ZM534.818 576.564 532.152 576.564 532.152 575.897 534.818 575.897ZM530.152 576.564 527.485 576.564 527.485 575.897 530.152 575.897ZM525.485 576.564 522.818 576.564 522.818 575.897 525.485 575.897ZM520.818 576.564 518.152 576.564 518.152 575.897 520.818 575.897ZM516.152 576.564 513.485 576.564 513.485 575.897 516.152 575.897ZM511.485 576.564 508.818 576.564 508.818 575.897 511.485 575.897ZM506.818 576.564 504.152 576.564 504.152 575.897 506.818 575.897ZM502.152 576.564 499.485 576.564 499.485 575.897 502.152 575.897ZM497.485 576.564 494.818 576.564 494.818 575.897 497.485 575.897ZM492.818 576.564 490.152 576.564 490.152 575.897 492.818 575.897ZM488.152 576.564 485.485 576.564 485.485 575.897 488.152 575.897ZM483.485 576.564 480.818 576.564 480.818 575.897 483.485 575.897ZM478.818 576.564 476.152 576.564 476.152 575.897 478.818 575.897ZM474.152 576.564 471.485 576.564 471.485 575.897 474.152 575.897ZM469.485 576.564 466.818 576.564 466.818 575.897 469.485 575.897ZM464.818 576.564 462.152 576.564 462.152 575.897 464.818 575.897ZM460.152 576.564 457.485 576.564 457.485 575.897 460.152 575.897ZM455.485 576.564 452.818 576.564 452.818 575.897 455.485 575.897ZM452.833 577.912 452.833 580.579 452.167 580.579 452.167 577.912ZM452.833 582.579 452.833 585.246 452.167 585.246 452.167 582.579ZM452.833 587.246 452.833 589.912 452.167 589.912 452.167 587.246ZM452.833 591.912 452.833 594.579 452.167 594.579 452.167 591.912ZM452.833 596.579 452.833 599.246 452.167 599.246 452.167 596.579ZM452.833 601.246 452.833 603.912 452.167 603.912 452.167 601.246ZM452.833 605.912 452.833 608.579 452.167 608.579 452.167 605.912ZM452.833 610.579 452.833 613.246 452.167 613.246 452.167 610.579ZM452.833 615.246 452.833 616.994 452.167 616.994 452.167 615.246ZM457.455 609.162 452.5 617.655 447.545 609.162C447.453 609.003 447.506 608.799 447.665 608.706 447.824 608.613 448.029 608.667 448.121 608.826L452.788 616.826 452.212 616.826 456.879 608.826C456.972 608.667 457.176 608.613 457.335 608.706 457.494 608.799 457.547 609.003 457.455 609.162Z"/><path d="M887.582 405.5 887.582 408.167 886.915 408.167 886.915 405.5ZM887.582 410.167 887.582 412.833 886.915 412.833 886.915 410.167ZM887.582 414.833 887.582 417.5 886.915 417.5 886.915 414.833ZM887.582 419.5 887.582 422.167 886.915 422.167 886.915 419.5ZM887.582 424.167 887.582 426.833 886.915 426.833 886.915 424.167ZM887.582 428.833 887.582 431.5 886.915 431.5 886.915 428.833ZM887.582 433.5 887.582 436.167 886.915 436.167 886.915 433.5ZM887.582 438.167 887.582 440.833 886.915 440.833 886.915 438.167ZM887.582 442.833 887.582 445.5 886.915 445.5 886.915 442.833ZM887.582 447.5 887.582 450.167 886.915 450.167 886.915 447.5ZM887.582 452.167 887.582 454.833 886.915 454.833 886.915 452.167ZM887.582 456.833 887.582 459.5 886.915 459.5 886.915 456.833ZM887.582 461.5 887.582 464.167 886.915 464.167 886.915 461.5ZM887.582 466.167 887.582 468.833 886.915 468.833 886.915 466.167ZM887.582 470.833 887.582 473.5 886.915 473.5 886.915 470.833ZM887.582 475.5 887.582 478.167 886.915 478.167 886.915 475.5ZM887.582 480.167 887.582 482.833 886.915 482.833 886.915 480.167ZM887.582 484.833 887.582 487.5 886.915 487.5 886.915 484.833ZM887.582 489.5 887.582 492.167 886.915 492.167 886.915 489.5ZM887.582 494.167 887.582 496.833 886.915 496.833 886.915 494.167ZM887.582 498.833 887.582 501.5 886.915 501.5 886.915 498.833ZM887.582 503.5 887.582 506.167 886.915 506.167 886.915 503.5ZM887.582 508.167 887.582 510.833 886.915 510.833 886.915 508.167ZM887.582 512.833 887.582 515.5 886.915 515.5 886.915 512.833ZM887.582 517.5 887.582 520.167 886.915 520.167 886.915 517.5ZM887.582 522.167 887.582 524.833 886.915 524.833 886.915 522.167ZM887.582 526.833 887.582 529.5 886.915 529.5 886.915 526.833ZM887.582 531.5 887.582 534.167 886.915 534.167 886.915 531.5ZM887.582 536.167 887.582 538.833 886.915 538.833 886.915 536.167ZM887.582 540.833 887.582 543.5 886.915 543.5 886.915 540.833ZM887.582 545.5 887.582 548.167 886.915 548.167 886.915 545.5ZM887.582 550.167 887.582 552.833 886.915 552.833 886.915 550.167ZM887.582 554.833 887.582 557.5 886.915 557.5 886.915 554.833ZM887.582 559.5 887.582 562.167 886.915 562.167 886.915 559.5ZM887.582 564.167 887.582 566.833 886.915 566.833 886.915 564.167ZM887.582 568.833 887.582 571.5 886.915 571.5 886.915 568.833ZM887.582 573.5 887.582 576.167 886.915 576.167 886.915 573.5ZM887.582 578.167 887.582 580.833 886.915 580.833 886.915 578.167ZM887.582 582.833 887.582 585.5 886.915 585.5 886.915 582.833ZM887.582 587.5 887.582 590.167 886.915 590.167 886.915 587.5ZM885.886 591.137 883.219 591.137 883.219 590.471 885.886 590.471ZM881.219 591.137 878.553 591.137 878.553 590.471 881.219 590.471ZM876.553 591.137 873.886 591.137 873.886 590.471 876.553 590.471ZM871.886 591.137 869.219 591.137 869.219 590.471 871.886 590.471ZM867.219 591.137 864.553 591.137 864.553 590.471 867.219 590.471ZM862.553 591.137 859.886 591.137 859.886 590.471 862.553 590.471ZM857.886 591.137 855.219 591.137 855.219 590.471 857.886 590.471ZM853.219 591.137 850.553 591.137 850.553 590.471 853.219 590.471ZM848.553 591.137 845.886 591.137 845.886 590.471 848.553 590.471ZM843.886 591.137 841.219 591.137 841.219 590.471 843.886 590.471ZM839.219 591.137 836.553 591.137 836.553 590.471 839.219 590.471ZM834.553 591.137 831.886 591.137 831.886 590.471 834.553 590.471ZM829.886 591.137 827.219 591.137 827.219 590.471 829.886 590.471ZM825.219 591.137 822.553 591.137 822.553 590.471 825.219 590.471ZM820.553 591.137 817.886 591.137 817.886 590.471 820.553 590.471ZM815.886 591.137 813.219 591.137 813.219 590.471 815.886 590.471ZM811.219 591.137 808.553 591.137 808.553 590.471 811.219 590.471ZM806.553 591.137 803.886 591.137 803.886 590.471 806.553 590.471ZM801.886 591.137 799.219 591.137 799.219 590.471 801.886 590.471ZM797.219 591.137 794.553 591.137 794.553 590.471 797.219 590.471ZM792.553 591.137 789.886 591.137 789.886 590.471 792.553 590.471ZM787.886 591.137 785.219 591.137 785.219 590.471 787.886 590.471ZM783.219 591.137 780.553 591.137 780.553 590.471 783.219 590.471ZM778.553 591.137 775.886 591.137 775.886 590.471 778.553 590.471ZM773.886 591.137 771.219 591.137 771.219 590.471 773.886 590.471ZM769.219 591.137 766.553 591.137 766.553 590.471 769.219 590.471ZM764.553 591.137 761.886 591.137 761.886 590.471 764.553 590.471ZM759.886 591.137 757.219 591.137 757.219 590.471 759.886 590.471ZM755.219 591.137 752.553 591.137 752.553 590.471 755.219 590.471ZM750.553 591.137 747.886 591.137 747.886 590.471 750.553 590.471ZM745.886 591.137 743.219 591.137 743.219 590.471 745.886 590.471ZM741.219 591.137 738.553 591.137 738.553 590.471 741.219 590.471ZM736.553 591.137 733.886 591.137 733.886 590.471 736.553 590.471ZM731.886 591.137 729.219 591.137 729.219 590.471 731.886 590.471ZM727.219 591.137 724.553 591.137 724.553 590.471 727.219 590.471ZM722.553 591.137 719.886 591.137 719.886 590.471 722.553 590.471ZM717.886 591.137 715.219 591.137 715.219 590.471 717.886 590.471ZM713.219 591.137 710.553 591.137 710.553 590.471 713.219 590.471ZM708.553 591.137 705.886 591.137 705.886 590.471 708.553 590.471ZM703.886 591.137 701.219 591.137 701.219 590.471 703.886 590.471ZM699.219 591.137 696.553 591.137 696.553 590.471 699.219 590.471ZM694.553 591.137 691.886 591.137 691.886 590.471 694.553 590.471ZM689.886 591.137 687.219 591.137 687.219 590.471 689.886 590.471ZM685.219 591.137 682.553 591.137 682.553 590.471 685.219 590.471ZM680.553 591.137 677.886 591.137 677.886 590.471 680.553 590.471ZM675.886 591.137 673.219 591.137 673.219 590.471 675.886 590.471ZM671.219 591.137 668.553 591.137 668.553 590.471 671.219 590.471ZM666.553 591.137 663.886 591.137 663.886 590.471 666.553 590.471ZM661.886 591.137 659.219 591.137 659.219 590.471 661.886 590.471ZM657.219 591.137 654.553 591.137 654.553 590.471 657.219 590.471ZM652.553 591.137 649.886 591.137 649.886 590.471 652.553 590.471ZM647.886 591.137 645.219 591.137 645.219 590.471 647.886 590.471ZM643.219 591.137 640.553 591.137 640.553 590.471 643.219 590.471ZM638.553 591.137 635.886 591.137 635.886 590.471 638.553 590.471ZM633.886 591.137 631.219 591.137 631.219 590.471 633.886 590.471ZM629.219 591.137 626.553 591.137 626.553 590.471 629.219 590.471ZM624.553 591.137 621.886 591.137 621.886 590.471 624.553 590.471ZM619.886 591.137 617.219 591.137 617.219 590.471 619.886 590.471ZM615.219 591.137 612.553 591.137 612.553 590.471 615.219 590.471ZM610.553 591.137 607.886 591.137 607.886 590.471 610.553 590.471ZM605.886 591.137 603.219 591.137 603.219 590.471 605.886 590.471ZM601.219 591.137 598.553 591.137 598.553 590.471 601.219 590.471ZM596.553 591.137 593.886 591.137 593.886 590.471 596.553 590.471ZM591.886 591.137 589.219 591.137 589.219 590.471 591.886 590.471ZM587.219 591.137 584.553 591.137 584.553 590.471 587.219 590.471ZM582.553 591.137 579.886 591.137 579.886 590.471 582.553 590.471ZM577.886 591.137 575.219 591.137 575.219 590.471 577.886 590.471ZM573.219 591.137 570.553 591.137 570.553 590.471 573.219 590.471ZM568.553 591.137 565.886 591.137 565.886 590.471 568.553 590.471ZM563.886 591.137 561.219 591.137 561.219 590.471 563.886 590.471ZM559.219 591.137 556.553 591.137 556.553 590.471 559.219 590.471ZM554.553 591.137 551.886 591.137 551.886 590.471 554.553 590.471ZM549.886 591.137 547.219 591.137 547.219 590.471 549.886 590.471ZM545.219 591.137 542.553 591.137 542.553 590.471 545.219 590.471ZM540.553 591.137 537.886 591.137 537.886 590.471 540.553 590.471ZM535.886 591.137 533.219 591.137 533.219 590.471 535.886 590.471ZM531.219 591.137 528.553 591.137 528.553 590.471 531.219 590.471ZM526.553 591.137 523.886 591.137 523.886 590.471 526.553 590.471ZM521.886 591.137 519.219 591.137 519.219 590.471 521.886 590.471ZM517.219 591.137 514.553 591.137 514.553 590.471 517.219 590.471ZM512.553 591.137 509.886 591.137 509.886 590.471 512.553 590.471ZM507.886 591.137 505.219 591.137 505.219 590.471 507.886 590.471ZM503.219 591.137 500.553 591.137 500.553 590.471 503.219 590.471ZM498.553 591.137 495.886 591.137 495.886 590.471 498.553 590.471ZM493.886 591.137 491.219 591.137 491.219 590.471 493.886 590.471ZM489.219 591.137 486.553 591.137 486.553 590.471 489.219 590.471ZM484.553 591.137 481.886 591.137 481.886 590.471 484.553 590.471ZM479.886 591.137 477.219 591.137 477.219 590.471 479.886 590.471ZM475.219 591.137 472.553 591.137 472.553 590.471 475.219 590.471ZM470.553 591.137 467.886 591.137 467.886 590.471 470.553 590.471ZM465.886 591.137 463.219 591.137 463.219 590.471 465.886 590.471ZM461.219 591.137 458.553 591.137 458.553 590.471 461.219 590.471ZM456.553 591.137 453.886 591.137 453.886 590.471 456.553 590.471ZM452.833 591.418 452.833 594.085 452.167 594.085 452.167 591.418ZM452.833 596.085 452.833 598.751 452.167 598.751 452.167 596.085ZM452.833 600.751 452.833 603.418 452.167 603.418 452.167 600.751ZM452.833 605.418 452.833 608.085 452.167 608.085 452.167 605.418ZM452.833 610.085 452.833 612.751 452.167 612.751 452.167 610.085ZM452.833 614.751 452.833 616.754 452.167 616.754 452.167 614.751ZM457.455 608.922 452.5 617.416 447.545 608.922C447.453 608.763 447.506 608.559 447.665 608.466 447.824 608.373 448.029 608.427 448.121 608.586L452.788 616.586 452.212 616.586 456.879 608.586C456.972 608.427 457.176 608.373 457.335 608.466 457.494 608.559 457.547 608.763 457.455 608.922Z"/><rect x="195.5" y="294.5" width="938" height="262" stroke="#000000" stroke-width="1.33333" stroke-miterlimit="8" stroke-dasharray="5.33333 4" fill="none"/><rect x="819.5" y="101.5" width="135" height="62" stroke="#000000" stroke-width="1.33333" stroke-miterlimit="8" fill="#FFFFFF"/><text font-family="Yu Gothic,Yu Gothic_MSFontService,sans-serif" font-weight="400" font-size="11" transform="translate(845.913 135)">IoTClientFactory</text><path d="M887.5 163.5 887.5 166.167 886.833 166.167 886.833 163.5ZM887.5 168.167 887.5 170.833 886.833 170.833 886.833 168.167ZM887.5 172.833 887.5 175.5 886.833 175.5 886.833 172.833ZM887.5 177.5 887.5 180.167 886.833 180.167 886.833 177.5ZM887.5 182.167 887.5 184.833 886.833 184.833 886.833 182.167ZM887.5 186.833 887.5 189.5 886.833 189.5 886.833 186.833ZM887.5 191.5 887.5 194.167 886.833 194.167 886.833 191.5ZM887.5 196.167 887.5 198.833 886.833 198.833 886.833 196.167ZM887.5 200.833 887.5 203.5 886.833 203.5 886.833 200.833ZM887.5 205.5 887.5 208.167 886.833 208.167 886.833 205.5ZM887.5 210.167 887.5 212.833 886.833 212.833 886.833 210.167ZM887.5 214.833 887.5 217.5 886.833 217.5 886.833 214.833ZM887.5 219.5 887.5 222.167 886.833 222.167 886.833 219.5ZM887.5 224.167 887.5 226.833 886.833 226.833 886.833 224.167ZM887.5 228.833 887.5 229.312 884.645 229.312 884.645 228.645 887.167 228.645 886.833 228.979 886.833 228.833ZM882.645 229.312 879.979 229.312 879.979 228.645 882.645 228.645ZM877.979 229.312 875.312 229.312 875.312 228.645 877.979 228.645ZM873.312 229.312 870.645 229.312 870.645 228.645 873.312 228.645ZM868.645 229.312 865.979 229.312 865.979 228.645 868.645 228.645ZM863.979 229.312 861.312 229.312 861.312 228.645 863.979 228.645ZM859.312 229.312 856.645 229.312 856.645 228.645 859.312 228.645ZM854.645 229.312 851.979 229.312 851.979 228.645 854.645 228.645ZM849.979 229.312 847.312 229.312 847.312 228.645 849.979 228.645ZM845.312 229.312 842.645 229.312 842.645 228.645 845.312 228.645ZM840.645 229.312 837.979 229.312 837.979 228.645 840.645 228.645ZM835.979 229.312 833.312 229.312 833.312 228.645 835.979 228.645ZM831.312 229.312 828.645 229.312 828.645 228.645 831.312 228.645ZM826.645 229.312 823.979 229.312 823.979 228.645 826.645 228.645ZM821.979 229.312 819.312 229.312 819.312 228.645 821.979 228.645ZM817.312 229.312 814.645 229.312 814.645 228.645 817.312 228.645ZM812.645 229.312 809.979 229.312 809.979 228.645 812.645 228.645ZM807.979 229.312 805.312 229.312 805.312 228.645 807.979 228.645ZM803.312 229.312 800.645 229.312 800.645 228.645 803.312 228.645ZM798.645 229.312 795.979 229.312 795.979 228.645 798.645 228.645ZM793.979 229.312 791.312 229.312 791.312 228.645 793.979 228.645ZM789.312 229.312 786.645 229.312 786.645 228.645 789.312 228.645ZM784.645 229.312 781.979 229.312 781.979 228.645 784.645 228.645ZM779.979 229.312 777.312 229.312 777.312 228.645 779.979 228.645ZM775.312 229.312 772.645 229.312 772.645 228.645 775.312 228.645ZM770.645 229.312 767.979 229.312 767.979 228.645 770.645 228.645ZM765.979 229.312 763.312 229.312 763.312 228.645 765.979 228.645ZM761.312 229.312 758.645 229.312 758.645 228.645 761.312 228.645ZM756.645 229.312 753.979 229.312 753.979 228.645 756.645 228.645ZM751.979 229.312 749.312 229.312 749.312 228.645 751.979 228.645ZM747.312 229.312 744.645 229.312 744.645 228.645 747.312 228.645ZM742.645 229.312 739.979 229.312 739.979 228.645 742.645 228.645ZM737.979 229.312 735.312 229.312 735.312 228.645 737.979 228.645ZM733.312 229.312 730.645 229.312 730.645 228.645 733.312 228.645ZM728.645 229.312 725.979 229.312 725.979 228.645 728.645 228.645ZM723.979 229.312 721.312 229.312 721.312 228.645 723.979 228.645ZM719.312 229.312 716.645 229.312 716.645 228.645 719.312 228.645ZM714.645 229.312 711.979 229.312 711.979 228.645 714.645 228.645ZM709.979 229.312 707.312 229.312 707.312 228.645 709.979 228.645ZM705.312 229.312 702.645 229.312 702.645 228.645 705.312 228.645ZM700.645 229.312 697.979 229.312 697.979 228.645 700.645 228.645ZM695.979 229.312 693.312 229.312 693.312 228.645 695.979 228.645ZM691.312 229.312 688.645 229.312 688.645 228.645 691.312 228.645ZM686.645 229.312 683.979 229.312 683.979 228.645 686.645 228.645ZM681.979 229.312 679.312 229.312 679.312 228.645 681.979 228.645ZM677.312 229.312 674.645 229.312 674.645 228.645 677.312 228.645ZM672.645 229.312 669.979 229.312 669.979 228.645 672.645 228.645ZM667.979 229.312 665.312 229.312 665.312 228.645 667.979 228.645ZM664.833 230.167 664.833 232.833 664.167 232.833 664.167 230.167ZM664.833 234.833 664.833 237.5 664.167 237.5 664.167 234.833ZM664.833 239.5 664.833 242.167 664.167 242.167 664.167 239.5ZM664.833 244.167 664.833 246.833 664.167 246.833 664.167 244.167ZM664.833 248.833 664.833 251.5 664.167 251.5 664.167 248.833ZM664.833 253.5 664.833 256.167 664.167 256.167 664.167 253.5ZM664.833 258.167 664.833 260.833 664.167 260.833 664.167 258.167ZM664.833 262.833 664.833 265.5 664.167 265.5 664.167 262.833ZM664.833 267.5 664.833 270.167 664.167 270.167 664.167 267.5ZM664.833 272.167 664.833 274.833 664.167 274.833 664.167 272.167ZM664.833 276.833 664.833 279.5 664.167 279.5 664.167 276.833ZM664.833 281.5 664.833 284.167 664.167 284.167 664.167 281.5ZM664.833 286.167 664.833 288.833 664.167 288.833 664.167 286.167ZM664.833 290.833 664.833 293.5 664.167 293.5 664.167 290.833ZM669.455 285.965 664.5 294.459 659.545 285.965C659.453 285.806 659.506 285.602 659.665 285.509 659.824 285.416 660.029 285.47 660.121 285.629L664.788 293.629 664.212 293.629 668.879 285.629C668.972 285.47 669.176 285.416 669.335 285.509 669.494 285.602 669.547 285.806 669.455 285.965Z"/><text font-family="Yu Gothic,Yu Gothic_MSFontService,sans-serif" font-weight="400" font-size="11" transform="translate(677.813 289)">create<tspan font-size="11" x="-289.561" y="320">create</tspan><tspan font-size="11" x="323.314" y="289">create</tspan><tspan font-size="11" x="-526.401" y="104">create</tspan></text><rect x="36.5001" y="58.5001" width="1226" height="634" stroke="#D9D9D9" stroke-width="1.33333" stroke-miterlimit="8" fill="none"/><text font-family="Yu Gothic,Yu Gothic_MSFontService,sans-serif" font-weight="400" font-size="16" transform="translate(462.978 101)">IoT Hub<tspan font-size="16" x="58.8333" y="0">、</tspan>DPS<tspan font-size="16" x="111.833" y="0">Authentication</tspan></text></g></svg>