<svg width="1228" height="757" xmlns="http://www.w3.org/2000/svg" xmlns:xlink="http://www.w3.org/1999/xlink" overflow="hidden"><defs><clipPath id="clip0"><rect x="35" y="8" width="1228" height="757"/></clipPath></defs><g clip-path="url(#clip0)" transform="translate(-35 -8)"><rect x="786" y="418" width="446" height="302" fill="#F2F2F2"/><rect x="206.5" y="83.5001" width="96" height="62" stroke="#000000" stroke-width="1.33333" stroke-miterlimit="8" fill="#FFFFFF"/><text font-family="Yu Gothic,Yu Gothic_MSFontService,sans-serif" font-weight="400" font-size="11" transform="translate(216.936 112)">&lt;&lt;interface&gt;&gt;<tspan font-size="11" x="14.8333" y="13">IoTClient</tspan></text><rect x="206.5" y="206.5" width="96" height="62" stroke="#000000" stroke-width="1.33333" stroke-miterlimit="8" fill="#FFFFFF"/><text font-family="Yu Gothic,Yu Gothic_MSFontService,sans-serif" font-weight="400" font-size="11" transform="translate(218.519 234)">&lt;&lt;abstract&gt;&gt;<tspan font-size="11" x="0.91333" y="13">IoTClientBase</tspan></text><rect x="98.5001" y="333.5" width="135" height="63" stroke="#000000" stroke-width="1.33333" stroke-miterlimit="8" fill="#FFFFFF"/><text font-family="Yu Gothic,Yu Gothic_MSFontService,sans-serif" font-weight="400" font-size="11" transform="translate(115.464 368)">IoTClientDeviceImpl</text><rect x="269.5" y="333.5" width="135" height="63" stroke="#000000" stroke-width="1.33333" stroke-miterlimit="8" fill="#FFFFFF"/><text font-family="Yu Gothic,Yu Gothic_MSFontService,sans-serif" font-weight="400" font-size="11" transform="translate(285.269 368)">IoTClientModuleImpl</text><rect x="117.5" y="469.5" width="96" height="63" stroke="#000000" stroke-width="1.33333" stroke-miterlimit="8" fill="#FFFFFF"/><text font-family="Yu Gothic,Yu Gothic_MSFontService,sans-serif" font-weight="400" font-size="11" transform="translate(138.967 498)">&lt;&lt;SDK&gt;&gt;<tspan font-size="11" x="-4.92" y="13">DeviceClient</tspan></text><rect x="289.5" y="469.5" width="96" height="63" stroke="#000000" stroke-width="1.33333" stroke-miterlimit="8" fill="#FFFFFF"/><text font-family="Yu Gothic,Yu Gothic_MSFontService,sans-serif" font-weight="400" font-size="11" transform="translate(310.519 498)">&lt;&lt;SDK&gt;&gt;<tspan font-size="11" x="-6.66666" y="13">Module</tspan>Client</text><rect x="606.5" y="312.5" width="135" height="63" stroke="#000000" stroke-width="1.33333" stroke-miterlimit="8" fill="#FFFFFF"/><text font-family="Yu Gothic,Yu Gothic_MSFontService,sans-serif" font-weight="400" font-size="11" transform="translate(638.16 341)">&lt;&lt;abstract&gt;&gt;<tspan font-size="11" x="-7.33331" y="13">IoTAppConnector</tspan></text><rect x="184.5" y="657.5" width="135" height="63" stroke="#000000" stroke-width="1.33333" stroke-miterlimit="8" fill="#FFFFFF"/><text font-family="Yu Gothic,Yu Gothic_MSFontService,sans-serif" font-weight="400" font-size="11" transform="translate(210.602 692)">IoTClientFactory</text><rect x="490.5" y="387.5" width="135" height="62" stroke="#000000" stroke-width="1.33333" stroke-miterlimit="8" fill="#FFFFFF"/><text font-family="Yu Gothic,Yu Gothic_MSFontService,sans-serif" font-weight="400" font-size="11" transform="translate(503.052 421)">InputMessageHandler</text><rect x="828.5" y="312.5" width="135" height="63" stroke="#000000" stroke-width="1.33333" stroke-miterlimit="8" fill="#FFFFFF"/><text font-family="Yu Gothic,Yu Gothic_MSFontService,sans-serif" font-weight="400" font-size="11" transform="translate(862.222 347)">IoTAppConfig</text><rect x="828.5" y="210.5" width="135" height="63" stroke="#000000" stroke-width="1.33333" stroke-miterlimit="8" fill="#FFFFFF"/><text font-family="Yu Gothic,Yu Gothic_MSFontService,sans-serif" font-weight="400" font-size="11" transform="translate(840.972 245)">IoTAppConfigResolver</text><rect x="183.5" y="567.5" width="136" height="62" stroke="#000000" stroke-width="1.33333" stroke-miterlimit="8" fill="#FFFFFF"/><text font-family="Yu Gothic,Yu Gothic_MSFontService,sans-serif" font-weight="400" font-size="11" transform="translate(215.287 595)">&lt;&lt;abstract&gt;&gt;<tspan font-size="11" x="-18.58" y="13">IoTHubAuthentication</tspan></text><path d="M242.5 286.5 252 269.5 261.5 286.5Z" stroke="#000000" stroke-width="1.33333" stroke-miterlimit="8" fill="#FFFFFF" fill-rule="evenodd"/><path d="M251.722 286.5 251.722 310.244 165.5 310.244 165.5 333.988" stroke="#000000" stroke-width="0.666667" stroke-miterlimit="8" fill="none" fill-rule="evenodd"/><path d="M0 0 23.7437 0 23.7437 85.3335 47.4875 85.3335" stroke="#000000" stroke-width="0.666667" stroke-miterlimit="8" fill="none" fill-rule="evenodd" transform="matrix(1.83697e-16 1 1 -1.83697e-16 252.5 286.5)"/><path d="M244.5 164.5 254.5 147.5 264.5 164.5Z" stroke="#000000" stroke-width="1.33333" stroke-miterlimit="8" fill="#FFFFFF" fill-rule="evenodd"/><path d="M0 0 25.1123 0 25.1123 134.549 169.736 134.549" stroke="#000000" stroke-width="0.666667" stroke-miterlimit="8" stroke-dasharray="2.66667 2" fill="none" fill-rule="evenodd" transform="matrix(1.83697e-16 1 1 -1.83697e-16 254.5 164.5)"/><path d="M254.271 164.5 254.271 189.24 113.5 189.24 113.5 333.492" stroke="#000000" stroke-width="0.666667" stroke-miterlimit="8" stroke-dasharray="2.66667 2" fill="none" fill-rule="evenodd"/><path d="M302.5 249.5 319 240.5 335.5 249.5 319 258.5Z" stroke="#000000" stroke-width="1.33333" stroke-miterlimit="8" fill="#FFFFFF" fill-rule="evenodd"/><path d="M165.5 396.5 174.5 413 165.5 429.5 156.5 413Z" stroke="#000000" stroke-width="1.33333" stroke-miterlimit="8" fill="#FFFFFF" fill-rule="evenodd"/><path d="M337.5 396.5 346.5 413 337.5 429.5 328.5 413Z" stroke="#000000" stroke-width="1.33333" stroke-miterlimit="8" fill="#FFFFFF" fill-rule="evenodd"/><path d="M165.833 429.5 165.833 468.967 165.167 468.967 165.167 429.5ZM170.455 461.135 165.5 469.629 160.546 461.135C160.453 460.976 160.506 460.772 160.665 460.68 160.825 460.587 161.029 460.64 161.121 460.799L165.788 468.799 165.212 468.799 169.879 460.799C169.972 460.64 170.176 460.587 170.335 460.679 170.494 460.772 170.547 460.976 170.455 461.135Z"/><path d="M337.833 429.5 337.833 468.692 337.167 468.692 337.167 429.5ZM342.455 460.86 337.5 469.354 332.546 460.86C332.453 460.701 332.507 460.497 332.666 460.404 332.825 460.311 333.029 460.365 333.121 460.524L337.788 468.524 337.212 468.524 341.879 460.524C341.972 460.365 342.176 460.311 342.335 460.404 342.494 460.497 342.547 460.701 342.455 460.86Z"/><path d="M404.5 349.167 407.167 349.167 407.167 349.833 404.5 349.833ZM409.167 349.167 411.833 349.167 411.833 349.833 409.167 349.833ZM413.833 349.167 416.5 349.167 416.5 349.833 413.833 349.833ZM418.5 349.167 421.167 349.167 421.167 349.833 418.5 349.833ZM423.167 349.167 425.833 349.167 425.833 349.833 423.167 349.833ZM427.833 349.167 430.5 349.167 430.5 349.833 427.833 349.833ZM432.5 349.167 435.167 349.167 435.167 349.833 432.5 349.833ZM437.167 349.167 439.833 349.167 439.833 349.833 437.167 349.833ZM441.833 349.167 444.5 349.167 444.5 349.833 441.833 349.833ZM446.5 349.167 447.669 349.167 447.669 351.331 447.003 351.331 447.003 349.5 447.336 349.833 446.5 349.833ZM447.669 353.331 447.669 355.997 447.003 355.997 447.003 353.331ZM447.669 357.997 447.669 360.664 447.003 360.664 447.003 357.997ZM447.669 362.664 447.669 365.331 447.003 365.331 447.003 362.664ZM447.669 367.331 447.669 369.997 447.003 369.997 447.003 367.331ZM447.669 371.997 447.669 374.664 447.003 374.664 447.003 371.997ZM447.669 376.664 447.669 379.331 447.003 379.331 447.003 376.664ZM447.669 381.331 447.669 383.997 447.003 383.997 447.003 381.331ZM447.669 385.997 447.669 388.664 447.003 388.664 447.003 385.997ZM447.669 390.664 447.669 393.331 447.003 393.331 447.003 390.664ZM447.669 395.331 447.669 397.997 447.003 397.997 447.003 395.331ZM447.669 399.997 447.669 402.664 447.003 402.664 447.003 399.997ZM447.669 404.664 447.669 407.331 447.003 407.331 447.003 404.664ZM447.669 409.331 447.669 411.997 447.003 411.997 447.003 409.331ZM447.669 413.997 447.669 416.664 447.003 416.664 447.003 413.997ZM448.131 417.536 450.797 417.536 450.797 418.203 448.131 418.203ZM452.797 417.536 455.464 417.536 455.464 418.203 452.797 418.203ZM457.464 417.536 460.131 417.536 460.131 418.203 457.464 418.203ZM462.131 417.536 464.797 417.536 464.797 418.203 462.131 418.203ZM466.797 417.536 469.464 417.536 469.464 418.203 466.797 418.203ZM471.464 417.536 474.131 417.536 474.131 418.203 471.464 418.203ZM476.131 417.536 478.797 417.536 478.797 418.203 476.131 418.203ZM480.797 417.536 483.464 417.536 483.464 418.203 480.797 418.203ZM485.464 417.536 488.131 417.536 488.131 418.203 485.464 418.203ZM481.68 412.915 490.174 417.869 481.68 422.824C481.521 422.917 481.317 422.863 481.224 422.704 481.131 422.545 481.185 422.341 481.344 422.248L489.344 417.581 489.344 418.157 481.344 413.491C481.185 413.398 481.131 413.194 481.224 413.035 481.317 412.876 481.521 412.822 481.68 412.915Z"/><path d="M558.167 387.46 558.167 384.793 558.833 384.793 558.833 387.46ZM558.167 382.793 558.167 380.127 558.833 380.127 558.833 382.793ZM558.167 378.127 558.167 375.46 558.833 375.46 558.833 378.127ZM558.167 373.46 558.167 370.793 558.833 370.793 558.833 373.46ZM558.167 368.793 558.167 366.127 558.833 366.127 558.833 368.793ZM558.167 364.127 558.167 361.46 558.833 361.46 558.833 364.127ZM558.167 359.46 558.167 356.793 558.833 356.793 558.833 359.46ZM558.167 354.793 558.167 352.127 558.833 352.127 558.833 354.793ZM558.167 350.127 558.167 347.46 558.833 347.46 558.833 350.127ZM558.167 345.46 558.167 344.167 560.207 344.167 560.207 344.833 558.5 344.833 558.833 344.5 558.833 345.46ZM562.207 344.167 564.873 344.167 564.873 344.833 562.207 344.833ZM566.873 344.167 569.54 344.167 569.54 344.833 566.873 344.833ZM571.54 344.167 574.207 344.167 574.207 344.833 571.54 344.833ZM576.207 344.167 578.873 344.167 578.873 344.833 576.207 344.833ZM580.873 344.167 583.54 344.167 583.54 344.833 580.873 344.833ZM585.54 344.167 588.207 344.167 588.207 344.833 585.54 344.833ZM590.207 344.167 592.873 344.167 592.873 344.833 590.207 344.833ZM594.873 344.167 597.54 344.167 597.54 344.833 594.873 344.833ZM599.54 344.167 602.207 344.167 602.207 344.833 599.54 344.833ZM604.207 344.167 606.475 344.167 606.475 344.833 604.207 344.833ZM598.643 339.546 607.137 344.5 598.643 349.455C598.484 349.547 598.28 349.494 598.187 349.335 598.094 349.176 598.148 348.972 598.307 348.879L606.307 344.212 606.307 344.788 598.307 340.121C598.148 340.029 598.094 339.825 598.187 339.665 598.28 339.506 598.484 339.453 598.643 339.546Z"/><path d="M741.5 344 758.5 335.5 775.5 344 758.5 352.5Z" stroke="#000000" stroke-width="1.33333" stroke-miterlimit="8" fill="#FFFFFF" fill-rule="evenodd"/><path d="M775.5 344.167 828.083 344.167 828.083 344.833 775.5 344.833ZM820.251 339.546 828.744 344.5 820.251 349.455C820.091 349.548 819.887 349.494 819.795 349.335 819.702 349.176 819.756 348.972 819.915 348.879L827.915 344.212 827.915 344.788 819.915 340.121C819.756 340.029 819.702 339.825 819.795 339.666 819.887 339.507 820.092 339.453 820.251 339.546Z"/><path d="M896.833 273.5 896.833 276.167 896.167 276.167 896.167 273.5ZM896.833 278.167 896.833 280.833 896.167 280.833 896.167 278.167ZM896.833 282.833 896.833 285.5 896.167 285.5 896.167 282.833ZM896.833 287.5 896.833 290.167 896.167 290.167 896.167 287.5ZM896.833 292.167 896.833 294.833 896.167 294.833 896.167 292.167ZM896.833 296.833 896.833 299.5 896.167 299.5 896.167 296.833ZM896.833 301.5 896.833 304.167 896.167 304.167 896.167 301.5ZM896.833 306.167 896.833 308.833 896.167 308.833 896.167 306.167ZM896.833 310.833 896.833 312.672 896.167 312.672 896.167 310.833ZM901.455 304.84 896.5 313.334 891.546 304.84C891.453 304.681 891.507 304.477 891.666 304.384 891.825 304.291 892.029 304.345 892.121 304.504L896.788 312.504 896.212 312.504 900.879 304.504C900.972 304.345 901.176 304.291 901.335 304.384 901.494 304.477 901.547 304.681 901.455 304.84Z"/><rect x="577.5" y="109.5" width="96" height="46" stroke="#000000" stroke-width="1.33333" stroke-miterlimit="8" fill="#FFFFFF"/><text font-family="Yu Gothic,Yu Gothic_MSFontService,sans-serif" font-weight="400" font-size="11" transform="translate(589.525 129)">&lt;&lt;abstract&gt;&gt;<tspan font-size="11" x="15.8333" y="13">IoTData</tspan></text><rect x="510.5" y="186.5" width="96" height="45" stroke="#000000" stroke-width="1.33333" stroke-miterlimit="8" fill="#FFFFFF"/><text font-family="Yu Gothic,Yu Gothic_MSFontService,sans-serif" font-weight="400" font-size="11" transform="translate(525.719 205)">IoTData<tspan font-size="11" x="42.6666" y="0">with </tspan><tspan font-size="11" x="6.41998" y="13">Properties</tspan></text><path d="M615.5 172.5 625.5 155.5 635.5 172.5Z" stroke="#000000" stroke-width="1.33333" stroke-miterlimit="8" fill="#FFFFFF" fill-rule="evenodd"/><path d="M626.056 172.5 626.056 179.575 558.5 179.575 558.5 186.65" stroke="#000000" stroke-width="0.666667" stroke-miterlimit="8" fill="none" fill-rule="evenodd"/><path d="M251.167 657.687 251.167 655.021 251.833 655.021 251.833 657.687ZM251.167 653.021 251.167 650.354 251.833 650.354 251.833 653.021ZM251.167 648.354 251.167 645.687 251.833 645.687 251.833 648.354ZM251.167 643.687 251.167 641.021 251.833 641.021 251.833 643.687ZM251.167 639.021 251.167 636.354 251.833 636.354 251.833 639.021ZM251.167 634.354 251.167 631.687 251.833 631.687 251.833 634.354ZM246.545 637.992 251.5 629.498 256.455 637.992C256.547 638.151 256.494 638.355 256.335 638.448 256.176 638.541 255.971 638.487 255.879 638.328L251.212 630.328 251.788 630.328 247.121 638.328C247.028 638.487 246.824 638.541 246.665 638.448 246.506 638.355 246.453 638.151 246.545 637.992Z"/><path d="M0-0.333333 2.66667-0.333333 2.66667 0.333333 0 0.333333ZM4.66667-0.333333 7.33333-0.333333 7.33333 0.333333 4.66667 0.333333ZM9.33333-0.333333 12-0.333333 12 0.333333 9.33333 0.333333ZM14-0.333333 16.6667-0.333333 16.6667 0.333333 14 0.333333ZM18.6667-0.333333 21.3333-0.333333 21.3333 0.333333 18.6667 0.333333ZM23.3333-0.333333 26-0.333333 26 0.333333 23.3333 0.333333ZM28-0.333333 30.6667-0.333333 30.6667 0.333333 28 0.333333ZM32.6667-0.333333 35.3333-0.333333 35.3333 0.333333 32.6667 0.333333ZM37.3333-0.333333 40-0.333333 40 0.333333 37.3333 0.333333ZM42-0.333333 44.6667-0.333333 44.6667 0.333333 42 0.333333ZM46.6667-0.333333 49.3333-0.333333 49.3333 0.333333 46.6667 0.333333ZM51.3333-0.333333 54-0.333333 54 0.333333 51.3333 0.333333ZM56-0.333333 58.6667-0.333333 58.6667 0.333333 56 0.333333ZM60.6667-0.333333 63.3333-0.333333 63.3333 0.333333 60.6667 0.333333ZM65.3333-0.333333 68-0.333333 68 0.333333 65.3333 0.333333ZM70-0.333333 72.6667-0.333333 72.6667 0.333333 70 0.333333ZM74.6667-0.333333 77.3333-0.333333 77.3333 0.333333 74.6667 0.333333ZM79.3333-0.333333 82-0.333333 82 0.333333 79.3333 0.333333ZM84-0.333333 86.6667-0.333333 86.6667 0.333333 84 0.333333ZM88.6667-0.333333 91.3333-0.333333 91.3333 0.333333 88.6667 0.333333ZM93.3333-0.333333 96-0.333333 96 0.333333 93.3333 0.333333ZM98-0.333333 100.667-0.333333 100.667 0.333333 98 0.333333ZM102.667-0.333333 105.333-0.333333 105.333 0.333333 102.667 0.333333ZM107.333-0.333333 109.105-0.333333 109.105 1.22831 108.438 1.22831 108.438 0 108.772 0.333333 107.333 0.333333ZM109.105 3.22831 109.105 5.89498 108.438 5.89498 108.438 3.22831ZM109.105 7.89498 109.105 10.5616 108.438 10.5616 108.438 7.89498ZM109.105 12.5616 109.105 15.2283 108.438 15.2283 108.438 12.5616ZM109.105 17.2283 109.105 19.895 108.438 19.895 108.438 17.2283ZM109.105 21.895 109.105 24.5616 108.438 24.5616 108.438 21.895ZM109.105 26.5616 109.105 29.2283 108.438 29.2283 108.438 26.5616ZM109.105 31.2283 109.105 33.895 108.438 33.895 108.438 31.2283ZM109.105 35.895 109.105 38.5616 108.438 38.5616 108.438 35.895ZM109.105 40.5616 109.105 43.2283 108.438 43.2283 108.438 40.5616ZM109.105 45.2283 109.105 47.895 108.438 47.895 108.438 45.2283ZM109.105 49.895 109.105 52.5616 108.438 52.5616 108.438 49.895ZM109.105 54.5616 109.105 57.2283 108.438 57.2283 108.438 54.5616ZM109.105 59.2283 109.105 61.895 108.438 61.895 108.438 59.2283ZM109.105 63.895 109.105 66.5616 108.438 66.5616 108.438 63.895ZM109.105 68.5616 109.105 71.2283 108.438 71.2283 108.438 68.5616ZM109.105 73.2283 109.105 75.895 108.438 75.895 108.438 73.2283ZM109.105 77.895 109.105 80.5616 108.438 80.5616 108.438 77.895ZM109.105 82.5616 109.105 85.2283 108.438 85.2283 108.438 82.5616ZM109.105 87.2283 109.105 89.895 108.438 89.895 108.438 87.2283ZM109.105 91.895 109.105 94.5616 108.438 94.5616 108.438 91.895ZM109.105 96.5616 109.105 99.2283 108.438 99.2283 108.438 96.5616ZM109.105 101.228 109.105 103.895 108.438 103.895 108.438 101.228ZM109.105 105.895 109.105 108.562 108.438 108.562 108.438 105.895ZM109.105 110.562 109.105 113.228 108.438 113.228 108.438 110.562ZM109.105 115.228 109.105 117.895 108.438 117.895 108.438 115.228ZM109.105 119.895 109.105 122.562 108.438 122.562 108.438 119.895ZM109.105 124.562 109.105 127.228 108.438 127.228 108.438 124.562ZM109.105 129.228 109.105 131.895 108.438 131.895 108.438 129.228ZM109.105 133.895 109.105 136.562 108.438 136.562 108.438 133.895ZM109.105 138.562 109.105 141.228 108.438 141.228 108.438 138.562ZM109.105 143.228 109.105 145.895 108.438 145.895 108.438 143.228ZM109.105 147.895 109.105 150.562 108.438 150.562 108.438 147.895ZM109.105 152.562 109.105 155.228 108.438 155.228 108.438 152.562ZM109.105 157.228 109.105 159.895 108.438 159.895 108.438 157.228ZM109.105 161.895 109.105 164.562 108.438 164.562 108.438 161.895ZM109.105 166.562 109.105 169.228 108.438 169.228 108.438 166.562ZM109.105 171.228 109.105 173.895 108.438 173.895 108.438 171.228ZM109.105 175.895 109.105 178.562 108.438 178.562 108.438 175.895ZM109.105 180.562 109.105 183.228 108.438 183.228 108.438 180.562ZM109.105 185.228 109.105 187.895 108.438 187.895 108.438 185.228ZM109.105 189.895 109.105 192.562 108.438 192.562 108.438 189.895ZM109.105 194.562 109.105 197.228 108.438 197.228 108.438 194.562ZM109.105 199.228 109.105 201.895 108.438 201.895 108.438 199.228ZM109.105 203.895 109.105 206.562 108.438 206.562 108.438 203.895ZM109.105 208.562 109.105 211.228 108.438 211.228 108.438 208.562ZM109.105 213.228 109.105 215.895 108.438 215.895 108.438 213.228ZM109.105 217.895 109.105 220.562 108.438 220.562 108.438 217.895ZM109.105 222.562 109.105 225.228 108.438 225.228 108.438 222.562ZM109.105 227.228 109.105 229.895 108.438 229.895 108.438 227.228ZM109.105 231.895 109.105 234.562 108.438 234.562 108.438 231.895ZM109.105 236.562 109.105 239.228 108.438 239.228 108.438 236.562ZM109.105 241.228 109.105 243.895 108.438 243.895 108.438 241.228ZM109.105 245.895 109.105 248.562 108.438 248.562 108.438 245.895ZM109.105 250.562 109.105 253.228 108.438 253.228 108.438 250.562ZM109.105 255.228 109.105 257.895 108.438 257.895 108.438 255.228ZM109.105 259.895 109.105 262.562 108.438 262.562 108.438 259.895ZM109.105 264.562 109.105 267.228 108.438 267.228 108.438 264.562ZM109.105 269.228 109.105 271.895 108.438 271.895 108.438 269.228ZM109.105 273.895 109.105 276.562 108.438 276.562 108.438 273.895ZM109.105 278.562 109.105 281.228 108.438 281.228 108.438 278.562ZM109.105 283.228 109.105 285.895 108.438 285.895 108.438 283.228ZM109.105 287.895 109.105 290.562 108.438 290.562 108.438 287.895ZM109.105 292.562 109.105 293.753 106.963 293.753 106.963 293.086 108.772 293.086 108.438 293.42 108.438 292.562ZM104.963 293.753 102.297 293.753 102.297 293.086 104.963 293.086ZM100.297 293.753 97.6299 293.753 97.6299 293.086 100.297 293.086ZM95.6299 293.753 92.9632 293.753 92.9632 293.086 95.6299 293.086ZM90.9632 293.753 88.2965 293.753 88.2965 293.086 90.9632 293.086ZM86.2965 293.753 85.4311 293.753 85.4311 293.086 86.2965 293.086ZM93.2632 298.374 84.7696 293.42 93.2632 288.465C93.4222 288.372 93.6263 288.426 93.7191 288.585 93.8118 288.744 93.7581 288.948 93.5991 289.041L85.5991 293.708 85.5991 293.132 93.5991 297.799C93.7581 297.891 93.8118 298.095 93.7191 298.254 93.6263 298.413 93.4222 298.467 93.2632 298.374Z" transform="matrix(1 0 0 -1 320.5 673.92)"/><path d="M184.16 672.833 181.493 672.833 181.493 672.166 184.16 672.166ZM179.493 672.833 176.826 672.833 176.826 672.166 179.493 672.166ZM174.826 672.833 172.16 672.833 172.16 672.166 174.826 672.166ZM170.16 672.833 167.493 672.833 167.493 672.166 170.16 672.166ZM165.493 672.833 162.826 672.833 162.826 672.166 165.493 672.166ZM160.826 672.833 158.16 672.833 158.16 672.166 160.826 672.166ZM156.16 672.833 153.493 672.833 153.493 672.166 156.16 672.166ZM151.493 672.833 148.826 672.833 148.826 672.166 151.493 672.166ZM146.826 672.833 144.16 672.833 144.16 672.166 146.826 672.166ZM142.16 672.833 139.493 672.833 139.493 672.166 142.16 672.166ZM137.493 672.833 134.826 672.833 134.826 672.166 137.493 672.166ZM132.826 672.833 130.16 672.833 130.16 672.166 132.826 672.166ZM128.16 672.833 125.493 672.833 125.493 672.166 128.16 672.166ZM123.493 672.833 120.826 672.833 120.826 672.166 123.493 672.166ZM118.826 672.833 116.16 672.833 116.16 672.166 118.826 672.166ZM114.16 672.833 111.493 672.833 111.493 672.166 114.16 672.166ZM109.493 672.833 106.826 672.833 106.826 672.166 109.493 672.166ZM104.826 672.833 102.16 672.833 102.16 672.166 104.826 672.166ZM100.16 672.833 97.4931 672.833 97.4931 672.166 100.16 672.166ZM95.4931 672.833 92.8265 672.833 92.8265 672.166 95.4931 672.166ZM90.8265 672.833 88.1598 672.833 88.1598 672.166 90.8265 672.166ZM86.1598 672.833 83.4931 672.833 83.4931 672.166 86.1598 672.166ZM81.4931 672.833 78.8265 672.833 78.8265 672.166 81.4931 672.166ZM76.8265 672.833 74.1666 672.833 74.1666 672.16 74.8332 672.16 74.8332 672.5 74.4999 672.166 76.8265 672.166ZM74.1666 670.16 74.1666 667.493 74.8332 667.493 74.8332 670.16ZM74.1666 665.493 74.1666 662.826 74.8332 662.826 74.8332 665.493ZM74.1666 660.826 74.1666 658.16 74.8332 658.16 74.8332 660.826ZM74.1666 656.16 74.1666 653.493 74.8332 653.493 74.8332 656.16ZM74.1666 651.493 74.1666 648.826 74.8332 648.826 74.8332 651.493ZM74.1666 646.826 74.1666 644.16 74.8332 644.16 74.8332 646.826ZM74.1666 642.16 74.1666 639.493 74.8332 639.493 74.8332 642.16ZM74.1666 637.493 74.1666 634.826 74.8332 634.826 74.8332 637.493ZM74.1666 632.826 74.1666 630.16 74.8332 630.16 74.8332 632.826ZM74.1666 628.16 74.1666 625.493 74.8332 625.493 74.8332 628.16ZM74.1666 623.493 74.1666 620.826 74.8332 620.826 74.8332 623.493ZM74.1666 618.826 74.1666 616.16 74.8332 616.16 74.8332 618.826ZM74.1666 614.16 74.1666 611.493 74.8332 611.493 74.8332 614.16ZM74.1666 609.493 74.1666 606.826 74.8332 606.826 74.8332 609.493ZM74.1666 604.826 74.1666 602.16 74.8332 602.16 74.8332 604.826ZM74.1666 600.16 74.1666 597.493 74.8332 597.493 74.8332 600.16ZM74.1666 595.493 74.1666 592.826 74.8332 592.826 74.8332 595.493ZM74.1666 590.826 74.1666 588.16 74.8332 588.16 74.8332 590.826ZM74.1666 586.16 74.1666 583.493 74.8332 583.493 74.8332 586.16ZM74.1666 581.493 74.1666 578.826 74.8332 578.826 74.8332 581.493ZM74.1666 576.826 74.1666 574.16 74.8332 574.16 74.8332 576.826ZM74.1666 572.16 74.1666 569.493 74.8332 569.493 74.8332 572.16ZM74.1666 567.493 74.1666 564.826 74.8332 564.826 74.8332 567.493ZM74.1666 562.826 74.1666 560.16 74.8332 560.16 74.8332 562.826ZM74.1666 558.16 74.1666 555.493 74.8332 555.493 74.8332 558.16ZM74.1666 553.493 74.1666 550.826 74.8332 550.826 74.8332 553.493ZM74.1666 548.826 74.1666 546.16 74.8332 546.16 74.8332 548.826ZM74.1666 544.16 74.1666 541.493 74.8332 541.493 74.8332 544.16ZM74.1666 539.493 74.1666 536.826 74.8332 536.826 74.8332 539.493ZM74.1666 534.826 74.1666 532.16 74.8332 532.16 74.8332 534.826ZM74.1666 530.16 74.1666 527.493 74.8332 527.493 74.8332 530.16ZM74.1666 525.493 74.1666 522.826 74.8332 522.826 74.8332 525.493ZM74.1666 520.826 74.1666 518.16 74.8332 518.16 74.8332 520.826ZM74.1666 516.16 74.1666 513.493 74.8332 513.493 74.8332 516.16ZM74.1666 511.493 74.1666 508.826 74.8332 508.826 74.8332 511.493ZM74.1666 506.826 74.1666 504.16 74.8332 504.16 74.8332 506.826ZM74.1666 502.16 74.1666 499.493 74.8332 499.493 74.8332 502.16ZM74.1666 497.493 74.1666 494.826 74.8332 494.826 74.8332 497.493ZM74.1666 492.826 74.1666 490.16 74.8332 490.16 74.8332 492.826ZM74.1666 488.16 74.1666 485.493 74.8332 485.493 74.8332 488.16ZM74.1666 483.493 74.1666 480.826 74.8332 480.826 74.8332 483.493ZM74.1666 478.826 74.1666 476.16 74.8332 476.16 74.8332 478.826ZM74.1666 474.16 74.1666 471.493 74.8332 471.493 74.8332 474.16ZM74.1666 469.493 74.1666 466.826 74.8332 466.826 74.8332 469.493ZM74.1666 464.826 74.1666 462.16 74.8332 462.16 74.8332 464.826ZM74.1666 460.16 74.1666 457.493 74.8332 457.493 74.8332 460.16ZM74.1666 455.493 74.1666 452.826 74.8332 452.826 74.8332 455.493ZM74.1666 450.826 74.1666 448.16 74.8332 448.16 74.8332 450.826ZM74.1666 446.16 74.1666 443.493 74.8332 443.493 74.8332 446.16ZM74.1666 441.493 74.1666 438.826 74.8332 438.826 74.8332 441.493ZM74.1666 436.826 74.1666 434.16 74.8332 434.16 74.8332 436.826ZM74.1666 432.16 74.1666 429.493 74.8332 429.493 74.8332 432.16ZM74.1666 427.493 74.1666 424.826 74.8332 424.826 74.8332 427.493ZM74.1666 422.826 74.1666 420.16 74.8332 420.16 74.8332 422.826ZM74.1666 418.16 74.1666 415.493 74.8332 415.493 74.8332 418.16ZM74.1666 413.493 74.1666 410.826 74.8332 410.826 74.8332 413.493ZM74.1666 408.826 74.1666 406.16 74.8332 406.16 74.8332 408.826ZM74.1666 404.16 74.1666 401.493 74.8332 401.493 74.8332 404.16ZM74.1666 399.493 74.1666 396.826 74.8332 396.826 74.8332 399.493ZM74.1666 394.826 74.1666 392.16 74.8332 392.16 74.8332 394.826ZM74.1666 390.16 74.1666 387.493 74.8332 387.493 74.8332 390.16ZM74.1666 385.493 74.1666 382.826 74.8332 382.826 74.8332 385.493ZM74.1666 380.826 74.1666 379.167 75.8404 379.167 75.8404 379.833 74.4999 379.833 74.8332 379.5 74.8332 380.826ZM77.8404 379.167 80.5071 379.167 80.5071 379.833 77.8404 379.833ZM82.5071 379.167 85.1738 379.167 85.1738 379.833 82.5071 379.833ZM87.1738 379.167 89.8404 379.167 89.8404 379.833 87.1738 379.833ZM91.8404 379.167 94.5071 379.167 94.5071 379.833 91.8404 379.833ZM96.5071 379.167 97.8401 379.167 97.8401 379.833 96.5071 379.833ZM90.008 374.545 98.5016 379.5 90.008 384.455C89.849 384.547 89.6449 384.494 89.5521 384.335 89.4594 384.176 89.5131 383.972 89.6721 383.879L97.6721 379.212 97.6721 379.788 89.6721 375.121C89.5131 375.029 89.4594 374.824 89.5521 374.665 89.6449 374.506 89.849 374.453 90.008 374.545Z"/><path d="M252.833 720.545 252.833 723.211 252.167 723.211 252.167 720.545ZM252.833 725.211 252.833 727.878 252.167 727.878 252.167 725.211ZM252.833 729.878 252.833 732.545 252.167 732.545 252.167 729.878ZM252.833 734.545 252.833 737.211 252.167 737.211 252.167 734.545ZM252.833 739.211 252.833 741.878 252.167 741.878 252.167 739.211ZM252.833 743.878 252.833 744.546 252.5 744.213 254.499 744.213 254.499 744.879 252.167 744.879 252.167 743.878ZM256.499 744.213 259.165 744.213 259.165 744.879 256.499 744.879ZM261.165 744.213 263.832 744.213 263.832 744.879 261.165 744.879ZM265.832 744.213 268.499 744.213 268.499 744.879 265.832 744.879ZM270.499 744.213 273.165 744.213 273.165 744.879 270.499 744.879ZM275.165 744.213 277.832 744.213 277.832 744.879 275.165 744.879ZM279.832 744.213 282.499 744.213 282.499 744.879 279.832 744.879ZM284.499 744.213 287.165 744.213 287.165 744.879 284.499 744.879ZM289.165 744.213 291.832 744.213 291.832 744.879 289.165 744.879ZM293.832 744.213 296.499 744.213 296.499 744.879 293.832 744.879ZM298.499 744.213 301.165 744.213 301.165 744.879 298.499 744.879ZM303.165 744.213 305.832 744.213 305.832 744.879 303.165 744.879ZM307.832 744.213 310.499 744.213 310.499 744.879 307.832 744.879ZM312.499 744.213 315.165 744.213 315.165 744.879 312.499 744.879ZM317.165 744.213 319.832 744.213 319.832 744.879 317.165 744.879ZM321.832 744.213 324.499 744.213 324.499 744.879 321.832 744.879ZM326.499 744.213 329.165 744.213 329.165 744.879 326.499 744.879ZM331.165 744.213 333.832 744.213 333.832 744.879 331.165 744.879ZM335.832 744.213 338.499 744.213 338.499 744.879 335.832 744.879ZM340.499 744.213 343.165 744.213 343.165 744.879 340.499 744.879ZM345.165 744.213 347.832 744.213 347.832 744.879 345.165 744.879ZM349.832 744.213 352.499 744.213 352.499 744.879 349.832 744.879ZM354.499 744.213 357.165 744.213 357.165 744.879 354.499 744.879ZM359.165 744.213 361.832 744.213 361.832 744.879 359.165 744.879ZM363.832 744.213 366.499 744.213 366.499 744.879 363.832 744.879ZM368.499 744.213 371.165 744.213 371.165 744.879 368.499 744.879ZM373.165 744.213 375.832 744.213 375.832 744.879 373.165 744.879ZM377.832 744.213 380.499 744.213 380.499 744.879 377.832 744.879ZM382.499 744.213 385.165 744.213 385.165 744.879 382.499 744.879ZM387.165 744.213 389.832 744.213 389.832 744.879 387.165 744.879ZM391.832 744.213 394.499 744.213 394.499 744.879 391.832 744.879ZM396.499 744.213 399.165 744.213 399.165 744.879 396.499 744.879ZM401.165 744.213 403.832 744.213 403.832 744.879 401.165 744.879ZM405.832 744.213 408.499 744.213 408.499 744.879 405.832 744.879ZM410.499 744.213 413.165 744.213 413.165 744.879 410.499 744.879ZM415.165 744.213 417.832 744.213 417.832 744.879 415.165 744.879ZM419.832 744.213 422.499 744.213 422.499 744.879 419.832 744.879ZM424.499 744.213 427.165 744.213 427.165 744.879 424.499 744.879ZM429.165 744.213 431.832 744.213 431.832 744.879 429.165 744.879ZM433.832 744.213 436.499 744.213 436.499 744.879 433.832 744.879ZM438.499 744.213 441.165 744.213 441.165 744.879 438.499 744.879ZM443.165 744.213 445.832 744.213 445.832 744.879 443.165 744.879ZM447.832 744.213 450.499 744.213 450.499 744.879 447.832 744.879ZM452.499 744.213 455.165 744.213 455.165 744.879 452.499 744.879ZM457.165 744.213 459.832 744.213 459.832 744.879 457.165 744.879ZM461.832 744.213 464.499 744.213 464.499 744.879 461.832 744.879ZM466.499 744.213 469.165 744.213 469.165 744.879 466.499 744.879ZM471.165 744.213 473.832 744.213 473.832 744.879 471.165 744.879ZM475.832 744.213 478.499 744.213 478.499 744.879 475.832 744.879ZM480.499 744.213 483.165 744.213 483.165 744.879 480.499 744.879ZM485.165 744.213 487.832 744.213 487.832 744.879 485.165 744.879ZM489.832 744.213 492.499 744.213 492.499 744.879 489.832 744.879ZM494.499 744.213 497.165 744.213 497.165 744.879 494.499 744.879ZM499.165 744.213 501.832 744.213 501.832 744.879 499.165 744.879ZM503.832 744.213 506.499 744.213 506.499 744.879 503.832 744.879ZM508.499 744.213 511.165 744.213 511.165 744.879 508.499 744.879ZM513.165 744.213 515.832 744.213 515.832 744.879 513.165 744.879ZM517.832 744.213 520.499 744.213 520.499 744.879 517.832 744.879ZM522.499 744.213 525.165 744.213 525.165 744.879 522.499 744.879ZM527.165 744.213 529.832 744.213 529.832 744.879 527.165 744.879ZM531.832 744.213 534.499 744.213 534.499 744.879 531.832 744.879ZM536.499 744.213 539.165 744.213 539.165 744.879 536.499 744.879ZM541.165 744.213 543.832 744.213 543.832 744.879 541.165 744.879ZM545.832 744.213 548.499 744.213 548.499 744.879 545.832 744.879ZM550.499 744.213 553.165 744.213 553.165 744.879 550.499 744.879ZM555.165 744.213 557.832 744.213 557.832 744.879 555.165 744.879ZM559.832 744.213 562.499 744.213 562.499 744.879 559.832 744.879ZM564.499 744.213 567.165 744.213 567.165 744.879 564.499 744.879ZM569.165 744.213 571.832 744.213 571.832 744.879 569.165 744.879ZM573.832 744.213 576.499 744.213 576.499 744.879 573.832 744.879ZM578.499 744.213 581.165 744.213 581.165 744.879 578.499 744.879ZM583.165 744.213 585.832 744.213 585.832 744.879 583.165 744.879ZM587.832 744.213 590.499 744.213 590.499 744.879 587.832 744.879ZM592.499 744.213 595.165 744.213 595.165 744.879 592.499 744.879ZM597.165 744.213 599.832 744.213 599.832 744.879 597.165 744.879ZM601.832 744.213 604.499 744.213 604.499 744.879 601.832 744.879ZM606.499 744.213 609.165 744.213 609.165 744.879 606.499 744.879ZM611.165 744.213 613.832 744.213 613.832 744.879 611.165 744.879ZM615.832 744.213 618.499 744.213 618.499 744.879 615.832 744.879ZM620.499 744.213 623.165 744.213 623.165 744.879 620.499 744.879ZM625.165 744.213 627.832 744.213 627.832 744.879 625.165 744.879ZM629.832 744.213 632.499 744.213 632.499 744.879 629.832 744.879ZM634.499 744.213 637.165 744.213 637.165 744.879 634.499 744.879ZM639.165 744.213 641.832 744.213 641.832 744.879 639.165 744.879ZM643.832 744.213 646.499 744.213 646.499 744.879 643.832 744.879ZM648.499 744.213 651.165 744.213 651.165 744.879 648.499 744.879ZM653.165 744.213 655.832 744.213 655.832 744.879 653.165 744.879ZM657.832 744.213 660.499 744.213 660.499 744.879 657.832 744.879ZM662.499 744.213 665.165 744.213 665.165 744.879 662.499 744.879ZM667.165 744.213 669.832 744.213 669.832 744.879 667.165 744.879ZM671.832 744.213 674.499 744.213 674.499 744.879 671.832 744.879ZM674.474 742.855 674.474 740.188 675.141 740.188 675.141 742.855ZM674.474 738.188 674.474 735.522 675.141 735.522 675.141 738.188ZM674.474 733.522 674.474 730.855 675.141 730.855 675.141 733.522ZM674.474 728.855 674.474 726.188 675.141 726.188 675.141 728.855ZM674.474 724.188 674.474 721.522 675.141 721.522 675.141 724.188ZM674.474 719.522 674.474 716.855 675.141 716.855 675.141 719.522ZM674.474 714.855 674.474 712.188 675.141 712.188 675.141 714.855ZM674.474 710.188 674.474 707.522 675.141 707.522 675.141 710.188ZM674.474 705.522 674.474 702.855 675.141 702.855 675.141 705.522ZM674.474 700.855 674.474 698.188 675.141 698.188 675.141 700.855ZM674.474 696.188 674.474 693.522 675.141 693.522 675.141 696.188ZM674.474 691.522 674.474 688.855 675.141 688.855 675.141 691.522ZM674.474 686.855 674.474 684.188 675.141 684.188 675.141 686.855ZM674.474 682.188 674.474 679.522 675.141 679.522 675.141 682.188ZM674.474 677.522 674.474 674.855 675.141 674.855 675.141 677.522ZM674.474 672.855 674.474 670.188 675.141 670.188 675.141 672.855ZM674.474 668.188 674.474 665.522 675.141 665.522 675.141 668.188ZM674.474 663.522 674.474 660.855 675.141 660.855 675.141 663.522ZM674.474 658.855 674.474 656.188 675.141 656.188 675.141 658.855ZM674.474 654.188 674.474 651.522 675.141 651.522 675.141 654.188ZM674.474 649.522 674.474 646.855 675.141 646.855 675.141 649.522ZM674.474 644.855 674.474 642.188 675.141 642.188 675.141 644.855ZM674.474 640.188 674.474 637.522 675.141 637.522 675.141 640.188ZM674.474 635.522 674.474 632.855 675.141 632.855 675.141 635.522ZM674.474 630.855 674.474 628.188 675.141 628.188 675.141 630.855ZM674.474 626.188 674.474 623.522 675.141 623.522 675.141 626.188ZM674.474 621.522 674.474 618.855 675.141 618.855 675.141 621.522ZM674.474 616.855 674.474 614.188 675.141 614.188 675.141 616.855ZM674.474 612.188 674.474 609.522 675.141 609.522 675.141 612.188ZM674.474 607.522 674.474 604.855 675.141 604.855 675.141 607.522ZM674.474 602.855 674.474 600.188 675.141 600.188 675.141 602.855ZM674.474 598.188 674.474 595.522 675.141 595.522 675.141 598.188ZM674.474 593.522 674.474 590.855 675.141 590.855 675.141 593.522ZM674.474 588.855 674.474 586.188 675.141 586.188 675.141 588.855ZM674.474 584.188 674.474 581.522 675.141 581.522 675.141 584.188ZM674.474 579.522 674.474 576.855 675.141 576.855 675.141 579.522ZM674.474 574.855 674.474 572.188 675.141 572.188 675.141 574.855ZM674.474 570.188 674.474 567.522 675.141 567.522 675.141 570.188ZM674.474 565.522 674.474 562.855 675.141 562.855 675.141 565.522ZM674.474 560.855 674.474 558.188 675.141 558.188 675.141 560.855ZM674.474 556.188 674.474 553.522 675.141 553.522 675.141 556.188ZM674.474 551.522 674.474 548.855 675.141 548.855 675.141 551.522ZM674.474 546.855 674.474 544.188 675.141 544.188 675.141 546.855ZM674.474 542.188 674.474 539.522 675.141 539.522 675.141 542.188ZM674.474 537.522 674.474 534.855 675.141 534.855 675.141 537.522ZM674.474 532.855 674.474 530.188 675.141 530.188 675.141 532.855ZM674.474 528.188 674.474 525.522 675.141 525.522 675.141 528.188ZM674.474 523.522 674.474 520.855 675.141 520.855 675.141 523.522ZM674.474 518.855 674.474 516.188 675.141 516.188 675.141 518.855ZM674.474 514.188 674.474 511.522 675.141 511.522 675.141 514.188ZM674.474 509.522 674.474 506.855 675.141 506.855 675.141 509.522ZM674.474 504.855 674.474 502.188 675.141 502.188 675.141 504.855ZM674.474 500.188 674.474 497.522 675.141 497.522 675.141 500.188ZM674.474 495.522 674.474 492.855 675.141 492.855 675.141 495.522ZM674.474 490.855 674.474 488.188 675.141 488.188 675.141 490.855ZM674.474 486.188 674.474 483.522 675.141 483.522 675.141 486.188ZM674.474 481.522 674.474 478.855 675.141 478.855 675.141 481.522ZM674.474 476.855 674.474 474.188 675.141 474.188 675.141 476.855ZM674.474 472.188 674.474 469.522 675.141 469.522 675.141 472.188ZM674.474 467.522 674.474 464.855 675.141 464.855 675.141 467.522ZM674.474 462.855 674.474 460.188 675.141 460.188 675.141 462.855ZM674.474 458.188 674.474 455.522 675.141 455.522 675.141 458.188ZM674.474 453.522 674.474 450.855 675.141 450.855 675.141 453.522ZM674.474 448.855 674.474 446.188 675.141 446.188 675.141 448.855ZM674.474 444.188 674.474 441.522 675.141 441.522 675.141 444.188ZM674.474 439.522 674.474 436.855 675.141 436.855 675.141 439.522ZM674.474 434.855 674.474 432.188 675.141 432.188 675.141 434.855ZM674.474 430.188 674.474 427.522 675.141 427.522 675.141 430.188ZM674.474 425.522 674.474 422.855 675.141 422.855 675.141 425.522ZM674.474 420.855 674.474 418.188 675.141 418.188 675.141 420.855ZM674.474 416.188 674.474 413.522 675.141 413.522 675.141 416.188ZM674.474 411.522 674.474 408.855 675.141 408.855 675.141 411.522ZM674.474 406.855 674.474 404.188 675.141 404.188 675.141 406.855ZM674.474 402.188 674.474 399.522 675.141 399.522 675.141 402.188ZM674.474 397.522 674.474 394.855 675.141 394.855 675.141 397.522ZM674.474 392.855 674.474 390.188 675.141 390.188 675.141 392.855ZM674.474 388.188 674.474 385.522 675.141 385.522 675.141 388.188ZM674.474 383.522 674.474 380.855 675.141 380.855 675.141 383.522ZM674.474 378.855 674.474 376.188 675.141 376.188 675.141 378.855ZM669.853 383.992 674.807 375.499 679.762 383.992C679.855 384.151 679.801 384.355 679.642 384.448 679.483 384.541 679.279 384.487 679.186 384.328L674.519 376.328 675.095 376.328 670.429 384.328C670.336 384.487 670.132 384.541 669.973 384.448 669.814 384.355 669.76 384.151 669.853 383.992Z"/><path d="M0-0.333333 2.66667-0.333333 2.66667 0.333333 0 0.333333ZM4.66667-0.333333 7.33333-0.333333 7.33333 0.333333 4.66667 0.333333ZM9.33333-0.333333 12-0.333333 12 0.333333 9.33333 0.333333ZM14-0.333333 16.6667-0.333333 16.6667 0.333333 14 0.333333ZM18.0861 0.913911 18.0861 3.58058 17.4194 3.58058 17.4194 0.913911ZM18.0861 5.58058 18.0861 8.24724 17.4194 8.24724 17.4194 5.58058ZM18.0861 10.2472 18.0861 12.9139 17.4194 12.9139 17.4194 10.2472ZM18.0861 14.9139 18.0861 17.5806 17.4194 17.5806 17.4194 14.9139ZM18.0861 19.5806 18.0861 22.2472 17.4194 22.2472 17.4194 19.5806ZM18.0861 24.2472 18.0861 26.9139 17.4194 26.9139 17.4194 24.2472ZM18.0861 28.9139 18.0861 31.5806 17.4194 31.5806 17.4194 28.9139ZM18.6802 32.3198 21.3469 32.3198 21.3469 32.9865 18.6802 32.9865ZM23.3469 32.3198 26.0135 32.3198 26.0135 32.9865 23.3469 32.9865ZM28.0135 32.3198 30.6802 32.3198 30.6802 32.9865 28.0135 32.9865ZM32.6802 32.3198 34.8455 32.3198 34.8455 32.9865 32.6802 32.9865ZM27.0135 27.6985 35.5071 32.6531 27.0135 37.6077C26.8545 37.7005 26.6503 37.6468 26.5576 37.4877 26.4648 37.3287 26.5185 37.1246 26.6776 37.0319L34.6776 32.3652 34.6776 32.941 26.6776 28.2744C26.5185 28.1816 26.4648 27.9775 26.5576 27.8185 26.6503 27.6595 26.8545 27.6058 27.0135 27.6985Z" transform="matrix(-1.83697e-16 -1 -1 1.83697e-16 198.153 568.005)"/><path d="M303.167 568.771 303.167 566.104 303.833 566.104 303.833 568.771ZM303.167 564.104 303.167 561.437 303.833 561.437 303.833 564.104ZM303.167 559.437 303.167 556.771 303.833 556.771 303.833 559.437ZM303.167 554.771 303.167 552.104 303.833 552.104 303.833 554.771ZM304.031 550.302 306.698 550.302 306.698 550.969 304.031 550.969ZM308.698 550.302 311.365 550.302 311.365 550.969 308.698 550.969ZM313.365 550.302 316.031 550.302 316.031 550.969 313.365 550.969ZM318.031 550.302 320.698 550.302 320.698 550.969 318.031 550.969ZM322.698 550.302 325.365 550.302 325.365 550.969 322.698 550.969ZM327.365 550.302 330.031 550.302 330.031 550.969 327.365 550.969ZM332.031 550.302 334.698 550.302 334.698 550.969 332.031 550.969ZM336.698 550.302 337.514 550.302 337.18 550.635 337.18 548.784 337.847 548.784 337.847 550.969 336.698 550.969ZM337.18 546.784 337.18 544.117 337.847 544.117 337.847 546.784ZM337.18 542.117 337.18 539.451 337.847 539.451 337.847 542.117ZM337.18 537.451 337.18 534.784 337.847 534.784 337.847 537.451ZM332.559 540.992 337.514 532.498 342.468 540.992C342.561 541.151 342.507 541.355 342.348 541.448 342.189 541.541 341.985 541.487 341.892 541.328L337.226 533.328 337.802 533.328 333.135 541.328C333.042 541.487 332.838 541.541 332.679 541.448 332.52 541.355 332.466 541.151 332.559 540.992Z"/><path d="M335.5 249.167 674.376 249.167 674.376 312.446 673.71 312.446 673.71 249.5 674.043 249.833 335.5 249.833ZM678.998 304.614 674.043 313.107 669.089 304.614C668.996 304.455 669.049 304.25 669.208 304.158 669.368 304.065 669.572 304.119 669.664 304.278L674.331 312.278 673.755 312.278 678.422 304.278C678.515 304.119 678.719 304.065 678.878 304.158 679.037 304.25 679.09 304.455 678.998 304.614Z"/><path d="M303.5 226.5 320.5 217.5 337.5 226.5 320.5 235.5Z" stroke="#000000" stroke-width="1.33333" stroke-miterlimit="8" fill="#FFFFFF" fill-rule="evenodd"/><path d="M0-0.333333 86.7886-0.333333 86.7886 17.6134 86.4553 17.2801 172.251 17.2801 172.251 17.9468 86.1219 17.9468 86.1219 0 86.4553 0.333333 0 0.333333ZM164.419 12.6588 172.912 17.6134 164.419 22.568C164.259 22.6608 164.055 22.6071 163.963 22.4481 163.87 22.289 163.924 22.0849 164.083 21.9922L172.083 17.3255 172.083 17.9014 164.083 13.2347C163.924 13.1419 163.87 12.9378 163.963 12.7788 164.055 12.6198 164.259 12.5661 164.419 12.6588Z" transform="matrix(1 0 0 -1 337.5 226.113)"/><text font-family="Yu Gothic,Yu Gothic_MSFontService,sans-serif" font-weight="400" font-size="11" transform="translate(440.665 198)">d2cMessage</text><path d="M302.5 114.167 305.167 114.167 305.167 114.833 302.5 114.833ZM307.167 114.167 309.833 114.167 309.833 114.833 307.167 114.833ZM311.833 114.167 314.5 114.167 314.5 114.833 311.833 114.833ZM316.5 114.167 319.167 114.167 319.167 114.833 316.5 114.833ZM321.167 114.167 323.833 114.167 323.833 114.833 321.167 114.833ZM325.833 114.167 328.5 114.167 328.5 114.833 325.833 114.833ZM330.5 114.167 333.167 114.167 333.167 114.833 330.5 114.833ZM335.167 114.167 337.833 114.167 337.833 114.833 335.167 114.833ZM339.833 114.167 342.5 114.167 342.5 114.833 339.833 114.833ZM344.5 114.167 347.167 114.167 347.167 114.833 344.5 114.833ZM349.167 114.167 351.833 114.167 351.833 114.833 349.167 114.833ZM353.833 114.167 356.5 114.167 356.5 114.833 353.833 114.833ZM358.5 114.167 361.167 114.167 361.167 114.833 358.5 114.833ZM363.167 114.167 365.833 114.167 365.833 114.833 363.167 114.833ZM367.833 114.167 370.5 114.167 370.5 114.833 367.833 114.833ZM372.5 114.167 375.167 114.167 375.167 114.833 372.5 114.833ZM377.167 114.167 379.833 114.167 379.833 114.833 377.167 114.833ZM381.833 114.167 384.5 114.167 384.5 114.833 381.833 114.833ZM386.5 114.167 389.167 114.167 389.167 114.833 386.5 114.833ZM391.167 114.167 393.833 114.167 393.833 114.833 391.167 114.833ZM395.833 114.167 398.5 114.167 398.5 114.833 395.833 114.833ZM400.5 114.167 403.167 114.167 403.167 114.833 400.5 114.833ZM405.167 114.167 407.833 114.167 407.833 114.833 405.167 114.833ZM409.833 114.167 412.5 114.167 412.5 114.833 409.833 114.833ZM414.5 114.167 417.167 114.167 417.167 114.833 414.5 114.833ZM419.167 114.167 421.833 114.167 421.833 114.833 419.167 114.833ZM423.833 114.167 426.5 114.167 426.5 114.833 423.833 114.833ZM428.5 114.167 431.167 114.167 431.167 114.833 428.5 114.833ZM433.167 114.167 435.833 114.167 435.833 114.833 433.167 114.833ZM437.833 114.167 440.336 114.167 440.336 114.997 439.669 114.997 439.669 114.5 440.003 114.833 437.833 114.833ZM440.336 116.997 440.336 119.664 439.669 119.664 439.669 116.997ZM440.336 121.664 440.336 124.331 439.669 124.331 439.669 121.664ZM440.336 126.331 440.336 128.997 439.669 128.997 439.669 126.331ZM440.336 130.997 440.336 132.116 440.003 131.782 441.551 131.782 441.551 132.449 439.669 132.449 439.669 130.997ZM443.551 131.782 446.218 131.782 446.218 132.449 443.551 132.449ZM448.218 131.782 450.884 131.782 450.884 132.449 448.218 132.449ZM452.884 131.782 455.551 131.782 455.551 132.449 452.884 132.449ZM457.551 131.782 460.218 131.782 460.218 132.449 457.551 132.449ZM462.218 131.782 464.884 131.782 464.884 132.449 462.218 132.449ZM466.884 131.782 469.551 131.782 469.551 132.449 466.884 132.449ZM471.551 131.782 474.218 131.782 474.218 132.449 471.551 132.449ZM476.218 131.782 478.884 131.782 478.884 132.449 476.218 132.449ZM480.884 131.782 483.551 131.782 483.551 132.449 480.884 132.449ZM485.551 131.782 488.218 131.782 488.218 132.449 485.551 132.449ZM490.218 131.782 492.884 131.782 492.884 132.449 490.218 132.449ZM494.884 131.782 497.551 131.782 497.551 132.449 494.884 132.449ZM499.551 131.782 502.218 131.782 502.218 132.449 499.551 132.449ZM504.218 131.782 506.884 131.782 506.884 132.449 504.218 132.449ZM508.884 131.782 511.551 131.782 511.551 132.449 508.884 132.449ZM513.551 131.782 516.218 131.782 516.218 132.449 513.551 132.449ZM518.218 131.782 520.884 131.782 520.884 132.449 518.218 132.449ZM522.884 131.782 525.551 131.782 525.551 132.449 522.884 132.449ZM527.551 131.782 530.218 131.782 530.218 132.449 527.551 132.449ZM532.218 131.782 534.884 131.782 534.884 132.449 532.218 132.449ZM536.884 131.782 539.551 131.782 539.551 132.449 536.884 132.449ZM541.551 131.782 544.218 131.782 544.218 132.449 541.551 132.449ZM546.218 131.782 548.884 131.782 548.884 132.449 546.218 132.449ZM550.884 131.782 553.551 131.782 553.551 132.449 550.884 132.449ZM555.551 131.782 558.218 131.782 558.218 132.449 555.551 132.449ZM560.218 131.782 562.884 131.782 562.884 132.449 560.218 132.449ZM564.884 131.782 567.551 131.782 567.551 132.449 564.884 132.449ZM569.551 131.782 572.218 131.782 572.218 132.449 569.551 132.449ZM574.218 131.782 576.845 131.782 576.845 132.449 574.218 132.449ZM569.014 127.161 577.507 132.116 569.014 137.07C568.855 137.163 568.65 137.109 568.558 136.95 568.465 136.791 568.519 136.587 568.678 136.495L576.678 131.828 576.678 132.404 568.678 127.737C568.519 127.644 568.465 127.44 568.558 127.281 568.65 127.122 568.855 127.068 569.014 127.161Z"/><rect x="36.5001" y="9.50005" width="1226" height="755" stroke="#D9D9D9" stroke-width="1.33333" stroke-miterlimit="8" fill="none"/><text font-family="Yu Gothic,Yu Gothic_MSFontService,sans-serif" font-weight="400" font-size="16" transform="translate(504.55 42)">IoT<tspan font-size="16" x="28.1667" y="0">Application</tspan><tspan font-size="16" x="115.5" y="0">Framework</tspan></text><rect x="828.5" y="500.5" width="144" height="68" stroke="#000000" stroke-width="1.33333" stroke-miterlimit="8" fill="#FFFFFF"/><text font-family="Yu Gothic,Yu Gothic_MSFontService,sans-serif" font-weight="400" font-size="11" transform="translate(857.17 531)">&lt;&lt;Framework&gt;&gt;<tspan font-size="11" x="-5.08667" y="13">Kae.IoT.Framewor</tspan>k</text><rect x="828.5" y="487.5" width="38" height="13" stroke="#000000" stroke-width="1.33333" stroke-miterlimit="8" fill="#FFFFFF"/><rect x="1053.5" y="500.5" width="144" height="68" stroke="#000000" stroke-width="1.33333" stroke-miterlimit="8" fill="#FFFFFF"/><text font-family="Yu Gothic,Yu Gothic_MSFontService,sans-serif" font-weight="400" font-size="11" transform="translate(1081.99 531)">&lt;&lt;Framework&gt;&gt;<tspan font-size="11" x="-3.58667" y="13">Kae.Utility.Logging</tspan></text><rect x="1053.5" y="487.5" width="38" height="13" stroke="#000000" stroke-width="1.33333" stroke-miterlimit="8" fill="#FFFFFF"/><rect x="828.5" y="624.5" width="144" height="68" stroke="#000000" stroke-width="1.33333" stroke-miterlimit="8" fill="#FFFFFF"/><text font-family="Yu Gothic,Yu Gothic_MSFontService,sans-serif" font-weight="400" font-size="11" transform="translate(856.67 649)">&lt;&lt;<tspan font-size="11" x="15.3333" y="0">Apprication</tspan><tspan font-size="11" x="71.6666" y="0">&gt;&gt;</tspan><tspan font-size="11" x="-12.2534" y="13">User IoT Device(Edge) </tspan><tspan font-size="11" x="15.8333" y="25">Application</tspan></text><rect x="828.5" y="611.5" width="38" height="13" stroke="#000000" stroke-width="1.33333" stroke-miterlimit="8" fill="#FFFFFF"/><path d="M972.5 534.167 975.167 534.167 975.167 534.833 972.5 534.833ZM977.167 534.167 979.833 534.167 979.833 534.833 977.167 534.833ZM981.833 534.167 984.5 534.167 984.5 534.833 981.833 534.833ZM986.5 534.167 989.167 534.167 989.167 534.833 986.5 534.833ZM991.167 534.167 993.833 534.167 993.833 534.833 991.167 534.833ZM995.833 534.167 998.5 534.167 998.5 534.833 995.833 534.833ZM1000.5 534.167 1003.17 534.167 1003.17 534.833 1000.5 534.833ZM1005.17 534.167 1007.83 534.167 1007.83 534.833 1005.17 534.833ZM1009.83 534.167 1012.5 534.167 1012.5 534.833 1009.83 534.833ZM1014.5 534.167 1017.17 534.167 1017.17 534.833 1014.5 534.833ZM1019.17 534.167 1021.83 534.167 1021.83 534.833 1019.17 534.833ZM1023.83 534.167 1026.5 534.167 1026.5 534.833 1023.83 534.833ZM1028.5 534.167 1031.17 534.167 1031.17 534.833 1028.5 534.833ZM1033.17 534.167 1035.83 534.167 1035.83 534.833 1033.17 534.833ZM1037.83 534.167 1040.5 534.167 1040.5 534.833 1037.83 534.833ZM1042.5 534.167 1045.17 534.167 1045.17 534.833 1042.5 534.833ZM1047.17 534.167 1049.83 534.167 1049.83 534.833 1047.17 534.833ZM1051.83 534.167 1052.66 534.167 1052.66 534.833 1051.83 534.833ZM1044.83 529.546 1053.32 534.5 1044.83 539.455C1044.67 539.547 1044.47 539.494 1044.37 539.335 1044.28 539.176 1044.34 538.972 1044.49 538.879L1052.49 534.212 1052.49 534.788 1044.49 530.121C1044.34 530.029 1044.28 529.825 1044.37 529.666 1044.47 529.507 1044.67 529.453 1044.83 529.546Z"/><path d="M0.333333-6.21075e-07 0.333338 2.66667-0.333328 2.66667-0.333333 6.21075e-07ZM0.333342 4.66667 0.333347 7.33333-0.33332 7.33333-0.333325 4.66667ZM0.333351 9.33333 0.333356 12-0.333311 12-0.333316 9.33333ZM0.333359 14 0.333364 16.6667-0.333302 16.6667-0.333307 14ZM0.333368 18.6667 0.333373 21.3333-0.333294 21.3333-0.333299 18.6667ZM0.333377 23.3333 0.333382 26-0.333285 26-0.33329 23.3333ZM0.333385 28 0.33339 30.6667-0.333276 30.6667-0.333281 28ZM0.333394 32.6667 0.333399 35.3333-0.333268 35.3333-0.333272 32.6667ZM0.333403 37.3333 0.333408 40-0.333259 40-0.333264 37.3333ZM0.333412 42 0.333417 44.6667-0.33325 44.6667-0.333255 42ZM0.33342 46.6667 0.333425 49.3333-0.333241 49.3333-0.333246 46.6667ZM0.333429 51.3333 0.333434 54-0.333233 54-0.333238 51.3333ZM4.95468 47.8548 0.000105035 56.3484-4.9545 47.8548C-5.04726 47.6958-4.99355 47.4917-4.83454 47.399-4.67552 47.3062-4.47141 47.3599-4.37865 47.5189L0.28803 55.5189-0.287823 55.5189 4.37883 47.5189C4.47159 47.3599 4.67569 47.3062 4.83471 47.3989 4.99373 47.4917 5.04744 47.6958 4.95468 47.8548Z" transform="matrix(1 0 0 -1 900.5 624.847)"/><text font-family="Yu Gothic,Yu Gothic_MSFontService,sans-serif" font-weight="400" font-size="16" transform="translate(915.546 450)"></text></g></svg>