<svg width="1228" height="636" xmlns="http://www.w3.org/2000/svg" xmlns:xlink="http://www.w3.org/1999/xlink" overflow="hidden"><defs><clipPath id="clip0"><rect x="35" y="57" width="1228" height="636"/></clipPath></defs><g clip-path="url(#clip0)" transform="translate(-35 -57)"><rect x="151.5" y="148.5" width="135" height="62" stroke="#000000" stroke-width="1.33333" stroke-miterlimit="8" fill="#FFFFFF"/><text font-family="Yu Gothic,Yu Gothic_MSFontService,sans-serif" font-weight="400" font-size="11" transform="translate(182.65 176)">&lt;&lt;abstract&gt;&gt;<tspan font-size="11" x="-7.33334" y="13">IoTAppConnector</tspan></text><path d="M208.5 227.5 218.5 210.5 228.5 227.5Z" stroke="#000000" stroke-width="1.33333" stroke-miterlimit="8" fill="#FFFFFF" fill-rule="evenodd"/><path d="M0 0 0.015958 33.0778" stroke="#000000" stroke-width="0.666667" stroke-miterlimit="8" fill="none" fill-rule="evenodd" transform="matrix(-1 0 0 1 218.516 227.5)"/><rect x="151.5" y="260.5" width="135" height="63" stroke="#000000" stroke-width="1.33333" stroke-miterlimit="8" fill="#FFFFFF"/><text font-family="Yu Gothic,Yu Gothic_MSFontService,sans-serif" font-weight="400" font-size="11" transform="translate(181.15 289)">&lt;&lt;generate&gt;&gt;<tspan font-size="11" x="-11" y="13">User </tspan><tspan font-size="11" x="15.1667" y="13">AppConnector</tspan></text><rect x="397.5" y="260.5" width="143" height="63" stroke="#000000" stroke-width="1.33333" stroke-miterlimit="8" fill="#FFFFFF"/><text font-family="Yu Gothic,Yu Gothic_MSFontService,sans-serif" font-weight="400" font-size="11" transform="translate(407.844 289)">&lt;&lt;<tspan font-size="11" x="15.3333" y="0">interface,generate</tspan><tspan font-size="11" x="105.667" y="0">&gt;&gt;</tspan><tspan font-size="11" x="41.3333" y="13">IIoTApp</tspan></text><path d="M286.5 292 303 283.5 319.5 292 303 300.5Z" stroke="#000000" stroke-width="1.33333" stroke-miterlimit="8" fill="#FFFFFF" fill-rule="evenodd"/><path d="M319.5 291.167 396.391 291.167 396.391 291.833 319.5 291.833ZM388.559 286.546 397.053 291.5 388.559 296.455C388.4 296.548 388.196 296.494 388.103 296.335 388.011 296.176 388.064 295.972 388.223 295.879L396.223 291.212 396.223 291.788 388.223 287.121C388.064 287.029 388.011 286.825 388.103 286.666 388.196 286.507 388.4 286.453 388.559 286.546Z"/><path d="M458.5 340.5 468.5 323.5 478.5 340.5Z" stroke="#000000" stroke-width="1.33333" stroke-miterlimit="8" fill="#FFFFFF" fill-rule="evenodd"/><path d="M0 0 0.000104987 31.1111" stroke="#000000" stroke-width="0.666667" stroke-miterlimit="8" fill="none" fill-rule="evenodd" transform="matrix(-1 0 0 1 468.5 340.5)"/><rect x="401.5" y="371.5" width="135" height="62" stroke="#000000" stroke-width="1.33333" stroke-miterlimit="8" fill="#FFFFFF"/><text font-family="Yu Gothic,Yu Gothic_MSFontService,sans-serif" font-weight="400" font-size="11" transform="translate(431.177 399)">&lt;&lt;generate&gt;&gt;<tspan font-size="11" x="19.5867" y="13">IoTApp</tspan></text><rect x="815.5" y="330.5" width="96" height="45" stroke="#000000" stroke-width="1.33333" stroke-miterlimit="8" fill="#FFFFFF"/><text font-family="Yu Gothic,Yu Gothic_MSFontService,sans-serif" font-weight="400" font-size="11" transform="translate(827.454 350)">&lt;&lt;abstract&gt;&gt;<tspan font-size="11" x="15.8333" y="13">IoTData</tspan></text><rect x="766.5" y="445.5" width="96" height="45" stroke="#000000" stroke-width="1.33333" stroke-miterlimit="8" fill="#FFFFFF"/><text font-family="Yu Gothic,Yu Gothic_MSFontService,sans-serif" font-weight="400" font-size="11" transform="translate(782.509 464)">IoTData<tspan font-size="11" x="42.6667" y="0">with </tspan><tspan font-size="11" x="6.42004" y="13">Properties</tspan></text><path d="M853.5 392.5 863.5 375.5 873.5 392.5Z" stroke="#000000" stroke-width="1.33333" stroke-miterlimit="8" fill="#FFFFFF" fill-rule="evenodd"/><path d="M0 0 48.695 52.4448" stroke="#000000" stroke-width="0.666667" stroke-miterlimit="8" fill="none" fill-rule="evenodd" transform="matrix(-1 0 0 1 863.195 392.5)"/><rect x="721.5" y="539.5" width="135" height="62" stroke="#000000" stroke-width="1.33333" stroke-miterlimit="8" fill="#FFFFFF"/><text font-family="Yu Gothic,Yu Gothic_MSFontService,sans-serif" font-weight="400" font-size="11" transform="translate(751.348 568)">&lt;&lt;generate&gt;&gt;<tspan font-size="11" x="14.5867" y="13">D2CData</tspan></text><rect x="873.5" y="504.5" width="135" height="63" stroke="#000000" stroke-width="1.33333" stroke-miterlimit="8" fill="#FFFFFF"/><text font-family="Yu Gothic,Yu Gothic_MSFontService,sans-serif" font-weight="400" font-size="11" transform="translate(903.347 526)">&lt;&lt;generate&gt;&gt;<tspan font-size="11" x="-2" y="13">App DT Desired </tspan><tspan font-size="11" x="11.6667" y="25">Properties</tspan></text><rect x="1042.5" y="504.5" width="135" height="63" stroke="#000000" stroke-width="1.33333" stroke-miterlimit="8" fill="#FFFFFF"/><text font-family="Yu Gothic,Yu Gothic_MSFontService,sans-serif" font-weight="400" font-size="11" transform="translate(1072.23 526)">&lt;&lt;generate&gt;&gt;<tspan font-size="11" x="-5.41333" y="13">App DT Reported </tspan><tspan font-size="11" x="11.6667" y="25">Properties</tspan></text><path d="M805.5 506.5 815 490.5 824.5 506.5Z" stroke="#000000" stroke-width="1.33333" stroke-miterlimit="8" fill="#FFFFFF" fill-rule="evenodd"/><path d="M815.412 506.5 815.412 522.869 789.5 522.869 789.5 539.238" stroke="#000000" stroke-width="0.666667" stroke-miterlimit="8" fill="none" fill-rule="evenodd"/><path d="M863.5 392.5 940.893 504.508" stroke="#000000" stroke-width="0.666667" stroke-miterlimit="8" fill="none" fill-rule="evenodd"/><path d="M863.5 392.5 1109.78 504.508" stroke="#000000" stroke-width="0.666667" stroke-miterlimit="8" fill="none" fill-rule="evenodd"/><path d="M351.5 476.5 447.5 476.5 447.5 556.5 431.5 572.5 351.5 572.5Z" fill="#FFFFFF" fill-rule="evenodd"/><path d="M431.5 572.5 434.7 559.7 447.5 556.5Z" fill="#CDCDCD" fill-rule="evenodd"/><path d="M431.5 572.5 434.7 559.7 447.5 556.5 431.5 572.5 351.5 572.5 351.5 476.5 447.5 476.5 447.5 556.5" stroke="#000000" stroke-width="1.33333" stroke-miterlimit="8" fill="none" fill-rule="evenodd"/><text font-family="Yu Gothic,Yu Gothic_MSFontService,sans-serif" font-weight="400" font-size="11" transform="translate(361.609 513)">&lt;&lt;generate&gt;&gt;<tspan font-size="11" x="12.6667" y="13">IoTApp.c</tspan>s</text><path d="M492.5 476.5 588.5 476.5 588.5 556.5 572.5 572.5 492.5 572.5Z" fill="#FFFFFF" fill-rule="evenodd"/><path d="M572.5 572.5 575.7 559.7 588.5 556.5Z" fill="#CDCDCD" fill-rule="evenodd"/><path d="M572.5 572.5 575.7 559.7 588.5 556.5 572.5 572.5 492.5 572.5 492.5 476.5 588.5 476.5 588.5 556.5" stroke="#000000" stroke-width="1.33333" stroke-miterlimit="8" fill="none" fill-rule="evenodd"/><text font-family="Yu Gothic,Yu Gothic_MSFontService,sans-serif" font-weight="400" font-size="11" transform="translate(502.553 513)">&lt;&lt;generate&gt;&gt;<tspan font-size="11" x="-0.580017" y="13">IoTApp.code.c</tspan><tspan font-size="11" x="69.42" y="13">s</tspan></text><path d="M539.707 476.802 537.423 475.425 537.767 474.854 540.051 476.231ZM535.71 474.393 535.139 474.049 535.483 473.478 536.054 473.822ZM533.426 473.017 531.142 471.64 531.486 471.069 533.77 472.446ZM529.429 470.608 528.858 470.264 529.202 469.693 529.773 470.037ZM527.145 469.231 524.861 467.855 525.205 467.284 527.489 468.66ZM523.148 466.823 522.577 466.479 522.921 465.908 523.492 466.252ZM520.864 465.446 518.58 464.07 518.924 463.499 521.208 464.875ZM516.867 463.038 516.296 462.693 516.641 462.122 517.212 462.466ZM514.583 461.661 512.299 460.285 512.644 459.714 514.928 461.09ZM510.586 459.252 510.015 458.908 510.36 458.337 510.931 458.681ZM508.302 457.876 506.018 456.499 506.363 455.928 508.647 457.305ZM504.306 455.467 503.735 455.123 504.079 454.552 504.65 454.896ZM502.022 454.091 499.738 452.714 500.082 452.143 502.366 453.52ZM498.025 451.682 497.454 451.338 497.798 450.767 498.369 451.111ZM495.741 450.306 493.457 448.929 493.801 448.358 496.085 449.735ZM491.744 447.897 491.173 447.553 491.517 446.982 492.088 447.326ZM489.46 446.52 487.176 445.144 487.52 444.573 489.804 445.949ZM485.463 444.112 484.892 443.768 485.236 443.197 485.807 443.541ZM483.179 442.735 480.895 441.359 481.239 440.788 483.523 442.164ZM479.182 440.326 478.611 439.982 478.955 439.411 479.526 439.755ZM476.898 438.95 474.614 437.574 474.958 437.003 477.242 438.379ZM472.901 436.541 472.33 436.197 472.674 435.626 473.245 435.97ZM470.617 435.165 468.893 434.126 469.237 433.555 470.961 434.594ZM473.216 442.127 468.499 433.499 478.331 433.64C478.515 433.642 478.662 433.794 478.659 433.978 478.657 434.162 478.505 434.309 478.321 434.306L469.061 434.174 469.358 433.681 473.801 441.807C473.889 441.969 473.83 442.171 473.668 442.259 473.507 442.348 473.304 442.288 473.216 442.127Z"/><path d="M0.175305-0.283513 2.44341 1.11892 2.0928 1.68595-0.175305 0.283513ZM4.14448 2.17075 4.71151 2.52136 4.3609 3.08839 3.79387 2.73778ZM6.41258 3.57319 8.68068 4.97563 8.33007 5.54265 6.06197 4.14021ZM10.3818 6.02745 10.9488 6.37806 10.5982 6.94509 10.0311 6.59448ZM12.6499 7.42989 14.918 8.83233 14.5673 9.39935 12.2992 7.99692ZM16.619 9.88416 17.1861 10.2348 16.8355 10.8018 16.2684 10.4512ZM18.8871 11.2866 21.1552 12.689 20.8046 13.2561 18.5365 11.8536ZM22.8563 13.7409 23.4233 14.0915 23.0727 14.6585 22.5057 14.3079ZM25.1244 15.1433 27.3925 16.5457 27.0419 17.1128 24.7738 15.7103ZM29.0936 17.5976 29.6606 17.9482 29.31 18.5152 28.743 18.1646ZM31.3617 19 33.6298 20.4024 33.2792 20.9695 31.0111 19.567ZM35.3309 21.4543 35.8979 21.8049 35.5473 22.3719 34.9803 22.0213ZM37.599 22.8567 39.8671 24.2591 39.5165 24.8262 37.2484 23.4237ZM41.5681 25.311 42.1352 25.6616 41.7846 26.2286 41.2175 25.878ZM43.8362 26.7134 46.1043 28.1158 45.7537 28.6829 43.4856 27.2804ZM47.8054 29.1677 48.3724 29.5183 48.0218 30.0853 47.4548 29.7347ZM50.0735 30.5701 52.3416 31.9725 51.991 32.5396 49.7229 31.1371ZM54.0427 33.0244 54.6097 33.375 54.2591 33.942 53.6921 33.5914ZM56.3108 34.4268 58.5789 35.8292 58.2283 36.3963 55.9602 34.9938ZM60.28 36.8811 60.847 37.2317 60.4964 37.7987 59.9294 37.4481ZM62.5481 38.2835 64.8162 39.6859 64.4656 40.253 62.1975 38.8505ZM66.5173 40.7378 67.0843 41.0884 66.7337 41.6554 66.1666 41.3048ZM68.7854 42.1402 69.1822 42.3856 68.8315 42.9526 68.4347 42.7072ZM64.9511 34.336 69.5695 43.017 59.7397 42.7642C59.5557 42.7594 59.4103 42.6064 59.415 42.4224 59.4198 42.2383 59.5728 42.093 59.7568 42.0977L69.0154 42.3358 68.7125 42.8256 64.3625 34.6491C64.276 34.4866 64.3377 34.2848 64.5002 34.1983 64.6628 34.1118 64.8646 34.1735 64.9511 34.336Z" transform="matrix(1 0 0 -1 399.5 476.516)"/><rect x="83.5001" y="445.5" width="135" height="62" stroke="#000000" stroke-width="1.33333" stroke-miterlimit="8" fill="#FFFFFF"/><text font-family="Yu Gothic,Yu Gothic_MSFontService,sans-serif" font-weight="400" font-size="11" transform="translate(109.844 480)">IoTClientFactory</text><path d="M350.764 524.813 348.257 523.904 348.484 523.278 350.991 524.187ZM346.377 523.223 343.87 522.314 344.097 521.687 346.604 522.596ZM341.99 521.632 339.483 520.723 339.71 520.096 342.217 521.005ZM337.603 520.041 335.096 519.132 335.323 518.505 337.83 519.414ZM333.216 518.45 330.709 517.541 330.936 516.915 333.443 517.824ZM328.828 516.86 326.321 515.951 326.549 515.324 329.056 516.233ZM324.441 515.269 321.934 514.36 322.161 513.733 324.668 514.642ZM320.054 513.678 317.547 512.769 317.774 512.142 320.281 513.051ZM315.667 512.087 313.16 511.178 313.387 510.551 315.894 511.46ZM311.28 510.496 308.773 509.587 309 508.961 311.507 509.87ZM306.893 508.906 304.386 507.997 304.613 507.37 307.12 508.279ZM302.505 507.315 299.998 506.406 300.226 505.779 302.733 506.688ZM298.118 505.724 295.611 504.815 295.839 504.188 298.345 505.097ZM293.731 504.133 291.224 503.224 291.451 502.598 293.958 503.507ZM289.344 502.543 286.837 501.633 287.064 501.007 289.571 501.916ZM284.957 500.952 282.45 500.043 282.677 499.416 285.184 500.325ZM280.57 499.361 278.063 498.452 278.29 497.825 280.797 498.734ZM276.182 497.77 273.675 496.861 273.903 496.234 276.41 497.143ZM271.795 496.179 269.288 495.27 269.516 494.644 272.023 495.553ZM267.408 494.589 264.901 493.68 265.128 493.053 267.635 493.962ZM263.021 492.998 260.514 492.089 260.741 491.462 263.248 492.371ZM258.634 491.407 256.127 490.498 256.354 489.871 258.861 490.78ZM254.247 489.816 251.74 488.907 251.967 488.281 254.474 489.19ZM249.859 488.226 247.353 487.316 247.58 486.69 250.087 487.599ZM245.472 486.635 242.965 485.726 243.193 485.099 245.7 486.008ZM241.085 485.044 238.578 484.135 238.805 483.508 241.312 484.417ZM236.698 483.453 234.191 482.544 234.418 481.917 236.925 482.826ZM232.311 481.862 229.804 480.953 230.031 480.327 232.538 481.236ZM227.924 480.272 225.417 479.363 225.644 478.736 228.151 479.645ZM223.536 478.681 221.03 477.772 221.257 477.145 223.764 478.054ZM219.149 477.09 219.01 477.04 219.238 476.413 219.377 476.463ZM224.795 484.053 218.499 476.5 228.172 474.737C228.354 474.704 228.527 474.824 228.56 475.005 228.593 475.186 228.473 475.36 228.292 475.393L219.18 477.053 219.377 476.512 225.307 483.626C225.425 483.767 225.405 483.977 225.264 484.095 225.123 484.213 224.912 484.194 224.795 484.053Z"/><rect x="83.5001" y="520.5" width="135" height="62" stroke="#000000" stroke-width="1.33333" stroke-miterlimit="8" fill="#FFFFFF"/><text font-family="Yu Gothic,Yu Gothic_MSFontService,sans-serif" font-weight="400" font-size="11" transform="translate(96.0108 555)">IoTAppConfigResolver</text><path d="M0.0673367-0.326461 2.67903 0.212232 2.54435 0.865155-0.0673367 0.326461ZM4.63779 0.616253 7.24948 1.15495 7.11481 1.80787 4.50312 1.26917ZM9.20825 1.55897 11.8199 2.09766 11.6853 2.75058 9.07358 2.21189ZM13.7787 2.50168 16.3904 3.04037 16.2557 3.6933 13.644 3.1546ZM18.3492 3.44439 20.9608 3.98309 20.8262 4.63601 18.2145 4.09732ZM22.9196 4.38711 25.5313 4.9258 25.3966 5.57872 22.7849 5.04003ZM27.4901 5.32982 30.1018 5.86852 29.9671 6.52144 27.3554 5.98274ZM32.0605 6.27253 34.6722 6.81123 34.5375 7.46415 31.9259 6.92546ZM36.631 7.21525 39.2427 7.75394 39.108 8.40686 36.4963 7.86817ZM41.2014 8.15796 43.8131 8.69666 43.6785 9.34958 41.0668 8.81088ZM45.7719 9.10068 48.3836 9.63937 48.2489 10.2923 45.6372 9.7536ZM50.3424 10.0434 52.954 10.5821 52.8194 11.235 50.2077 10.6963ZM54.9128 10.9861 57.5245 11.5248 57.3898 12.1777 54.7781 11.639ZM59.4833 11.9288 62.0949 12.4675 61.9603 13.1204 59.3486 12.5817ZM64.0537 12.8715 66.6654 13.4102 66.5307 14.0631 63.919 13.5245ZM68.6242 13.8142 71.2358 14.3529 71.1012 15.0059 68.4895 14.4672ZM73.1946 14.757 75.8063 15.2957 75.6716 15.9486 73.0599 15.4099ZM77.7651 15.6997 80.3768 16.2384 80.2421 16.8913 77.6304 16.3526ZM82.3355 16.6424 84.9472 17.1811 84.8126 17.834 82.2009 17.2953ZM86.906 17.5851 89.5177 18.1238 89.383 18.7767 86.7713 18.238ZM91.4764 18.5278 94.0881 19.0665 93.9535 19.7194 91.3418 19.1807ZM96.0469 19.4705 98.6586 20.0092 98.5239 20.6621 95.9122 20.1235ZM100.617 20.4132 103.229 20.9519 103.094 21.6049 100.483 21.0662ZM105.188 21.356 107.8 21.8946 107.665 22.5476 105.053 22.0089ZM109.758 22.2987 112.37 22.8374 112.235 23.4903 109.624 22.9516ZM114.329 23.2414 116.94 23.7801 116.806 24.433 114.194 23.8943ZM118.899 24.1841 121.511 24.7228 121.376 25.3757 118.765 24.837ZM123.47 25.1268 126.081 25.6655 125.947 26.3184 123.335 25.7797ZM128.04 26.0695 130.652 26.6082 130.517 27.2611 127.905 26.7224ZM125.062 20.7366 132.379 27.3049 123.06 30.4415C122.885 30.5003 122.696 30.4064 122.638 30.2319 122.579 30.0575 122.673 29.8684 122.847 29.8097L131.625 26.8553 131.509 27.4193 124.616 21.2328C124.479 21.1098 124.468 20.899 124.591 20.762 124.714 20.625 124.925 20.6137 125.062 20.7366Z" transform="matrix(-1 0 0 1 350.878 524.5)"/><rect x="703.5" y="421.5" width="488" height="196" stroke="#000000" stroke-width="1.33333" stroke-miterlimit="8" stroke-dasharray="5.33333 4" fill="none"/><path d="M535.5 423 552.5 414.5 569.5 423 552.5 431.5Z" stroke="#000000" stroke-width="1.33333" stroke-miterlimit="8" fill="#FFFFFF" fill-rule="evenodd"/><path d="M569.5 422.167 636.942 422.167 636.942 519.104 636.608 518.771 703.057 518.771 703.057 519.438 636.275 519.438 636.275 422.5 636.608 422.833 569.5 422.833ZM695.225 514.15 703.718 519.104 695.225 524.059C695.066 524.152 694.862 524.098 694.769 523.939 694.676 523.78 694.73 523.576 694.889 523.483L702.889 518.816 702.889 519.392 694.889 514.726C694.73 514.633 694.676 514.429 694.769 514.27 694.862 514.111 695.066 514.057 695.225 514.15Z"/><path d="M366.5 403.5 383.5 394.5 400.5 403.5 383.5 412.5Z" stroke="#000000" stroke-width="1.33333" stroke-miterlimit="8" fill="#FFFFFF" fill-rule="evenodd"/><path d="M366.418 404.009 218.167 404.009 218.167 324.16 218.833 324.16 218.833 403.676 218.5 403.342 366.418 403.342ZM213.545 331.992 218.5 323.499 223.455 331.992C223.547 332.151 223.494 332.355 223.335 332.448 223.176 332.541 222.972 332.487 222.879 332.328L218.212 324.328 218.788 324.328 214.121 332.328C214.029 332.487 213.824 332.541 213.665 332.448 213.506 332.355 213.453 332.151 213.545 331.992Z"/><rect x="570.5" y="196.5" width="136" height="62" stroke="#000000" stroke-width="1.33333" stroke-miterlimit="8" fill="#FFFFFF"/><text font-family="Yu Gothic,Yu Gothic_MSFontService,sans-serif" font-weight="400" font-size="11" transform="translate(617.176 231)">Program</text><path d="M0.271643-0.193187 1.81714 1.97996 1.27385 2.36633-0.271643 0.193187ZM2.97626 3.60982 4.52175 5.78296 3.97846 6.16934 2.43297 3.99619ZM5.68087 7.41282 7.22636 9.58597 6.68307 9.97234 5.13758 7.7992ZM8.38548 11.2158 9.93097 13.389 9.38769 13.7753 7.84219 11.6022ZM11.0901 15.0188 12.6356 17.192 12.0923 17.5784 10.5468 15.4052ZM13.7947 18.8218 15.3402 20.995 14.7969 21.3814 13.2514 19.2082ZM16.4993 22.6248 18.0448 24.798 17.5015 25.1844 15.956 23.0112ZM19.2039 26.4279 20.7494 28.601 20.2061 28.9874 18.6606 26.8142ZM21.9085 30.2309 23.454 32.404 22.9107 32.7904 21.3653 30.6172ZM24.6132 34.0339 26.1586 36.207 25.6154 36.5934 24.0699 34.4202ZM27.3178 37.8369 28.8633 40.01 28.32 40.3964 26.7745 38.2232ZM30.0224 41.6399 31.5679 43.813 31.0246 44.1994 29.4791 42.0262ZM32.727 45.4429 34.2725 47.616 33.7292 48.0024 32.1837 45.8292ZM35.4316 49.2459 36.9771 51.419 36.4338 51.8054 34.8883 49.6323ZM38.1362 53.0489 39.6817 55.222 39.1384 55.6084 37.5929 53.4353ZM40.8408 56.8519 42.3863 59.025 41.843 59.4114 40.2975 57.2383ZM43.5454 60.6549 45.0909 62.828 44.5476 63.2144 43.0022 61.0413ZM46.2501 64.4579 47.7955 66.631 47.2523 67.0174 45.7068 64.8443ZM48.9547 68.2609 50.5002 70.434 49.9569 70.8204 48.4114 68.6473ZM51.6593 72.0639 53.2048 74.2371 52.6615 74.6234 51.116 72.4503ZM54.3639 75.8669 55.9094 78.0401 55.3661 78.4264 53.8206 76.2533ZM57.0685 79.6699 58.614 81.8431 58.0707 82.2294 56.5252 80.0563ZM59.7731 83.4729 61.3186 85.6461 60.7753 86.0324 59.2298 83.8593ZM62.4777 87.2759 64.0232 89.4491 63.4799 89.8354 61.9344 87.6623ZM65.1823 91.0789 66.7278 93.2521 66.1846 93.6385 64.6391 91.4653ZM67.887 94.8819 69.4324 97.0551 68.8892 97.4415 67.3437 95.2683ZM70.5916 98.6849 72.1371 100.858 71.5938 101.244 70.0483 99.0713ZM73.2962 102.488 74.8417 104.661 74.2984 105.047 72.7529 102.874ZM76.0008 106.291 77.5463 108.464 77.003 108.85 75.4575 106.677ZM78.7054 110.094 80.2509 112.267 79.7076 112.653 78.1621 110.48ZM81.41 113.897 82.9555 116.07 82.4122 116.456 80.8667 114.283ZM84.1146 117.7 85.6601 119.873 85.1168 120.259 83.5714 118.086ZM86.8192 121.503 88.3647 123.676 87.8215 124.062 86.276 121.889ZM89.5239 125.306 91.0694 127.479 90.5261 127.866 88.9806 125.692ZM92.2285 129.109 93.774 131.282 93.2307 131.669 91.6852 129.495ZM94.9331 132.912 96.4786 135.085 95.9353 135.472 94.3898 133.298ZM97.6377 136.715 99.1832 138.888 98.6399 139.275 97.0944 137.101ZM100.342 140.518 101.888 142.691 101.345 143.078 99.799 140.904ZM101.226 133.786 102.11 143.579 93.1502 139.529C92.9825 139.453 92.908 139.256 92.9838 139.088 93.0596 138.92 93.2571 138.846 93.4249 138.922L101.864 142.736 101.395 143.07 100.562 133.846C100.545 133.663 100.68 133.501 100.864 133.484 101.047 133.468 101.209 133.603 101.226 133.786Z" transform="matrix(-1 0 0 1 638.61 258.5)"/><text font-family="Yu Gothic,Yu Gothic_MSFontService,sans-serif" font-weight="400" font-size="11" transform="translate(549.323 363)">create<tspan font-size="11" x="-322.102" y="105">create</tspan><tspan font-size="11" x="-319.145" y="196">create</tspan><tspan font-size="11" x="-193.617" y="228">自動</tspan><tspan font-size="11" x="-172.283" y="228">生成可能な</tspan><tspan font-size="11" x="-193.617" y="241">定型コードを記述</tspan><tspan font-size="11" x="-58.3231" y="228">アプリ専用の初期化終了、</tspan><tspan font-size="11" x="-58.3231" y="241">送信用データの収集や</tspan><tspan font-size="11" x="-58.3231" y="253">Reported</tspan><tspan font-size="11" x="-10.1564" y="253">Properties</tspan><tspan font-size="11" x="40.8436" y="253">の準備等、</tspan><tspan font-size="11" x="-58.3231" y="266">ユーザーロジックの</tspan><tspan font-size="11" x="-58.3231" y="279">のハンドコーディング用</tspan><tspan font-size="11" x="159.344" y="283">D2C</tspan><tspan font-size="11" x="180.678" y="283">、</tspan><tspan font-size="11" x="191.344" y="283">Desired Properties</tspan><tspan font-size="11" x="283.678" y="283">、</tspan><tspan font-size="11" x="294.344" y="283">Reported Properties</tspan><tspan font-size="11" x="393.511" y="283">のデータ型は、</tspan><tspan font-size="11" x="468.178" y="283">DTDL</tspan><tspan font-size="11" x="500.178" y="283">IoT PnP</tspan><tspan font-size="11" x="542.178" y="283">ファイルから自動生成可能</tspan><tspan font-size="16" x="-86.3453" y="-262">User IoT Device</tspan><tspan font-size="16" x="31.488" y="-262">（</tspan><tspan font-size="16" x="47.488" y="-262">Edge</tspan><tspan font-size="16" x="84.488" y="-262">）</tspan><tspan font-size="16" x="100.488" y="-262">Application</tspan></text><rect x="36.5001" y="58.5001" width="1226" height="634" stroke="#D9D9D9" stroke-width="1.33333" stroke-miterlimit="8" fill="none"/><rect x="83.5001" y="606.5" width="135" height="62" stroke="#000000" stroke-width="1.33333" stroke-miterlimit="8" fill="#FFFFFF"/><text font-family="Yu Gothic,Yu Gothic_MSFontService,sans-serif" font-weight="400" font-size="11" transform="translate(127.649 641)">IoTClient</text><path d="M317.5 559.5 334.5 550.5 351.5 559.5 334.5 568.5Z" stroke="#000000" stroke-width="1.33333" stroke-miterlimit="8" fill="#FFFFFF" fill-rule="evenodd"/><path d="M0-0.333333 50.2138-0.333333 50.2138 77.8805 49.8804 77.5472 99.1009 77.5472 99.1009 78.2139 49.5471 78.2139 49.5471 0 49.8804 0.333333 0 0.333333ZM91.2688 72.9259 99.7624 77.8805 91.2688 82.8351C91.1098 82.9279 90.9057 82.8742 90.8129 82.7151 90.7201 82.5561 90.7739 82.352 90.9329 82.2593L98.9329 77.5926 98.9329 78.1684 90.9329 73.5018C90.7739 73.409 90.7201 73.2049 90.8129 73.0459 90.9057 72.8869 91.1098 72.8332 91.2688 72.9259Z" transform="matrix(-1 1.22465e-16 1.22465e-16 1 318.261 559.5)"/></g></svg>